<svg viewBox="0 0 1400 860" xmlns="http://www.w3.org/2000/svg" font-family="Inter, ui-sans-serif, system-ui, sans-serif">
<rect x="0" y="0" width="1400" height="860" fill="#0a0e0f"/>
<rect x="270" y="16" width="860" height="66" rx="8" fill="#141d21" stroke="#2dd4bf" stroke-width="1.5"/>
<text x="700" y="44" font-size="18" fill="#e6edf0" text-anchor="middle" font-weight="700">Task-specific RL for LLMs: reward source &#215; optimization mechanism</text>
<text x="700" y="66" font-size="12.5" fill="#7d919b" text-anchor="middle">corpus: 118 papers &#8212; 85 placed on the two axes, 33 cross-cutting (root, shown below)</text>
<text x="272" y="482" font-size="13" fill="#2dd4bf" text-anchor="middle" font-weight="700" transform="rotate(-90 272 482)">REWARD SOURCE &#8594;</text>
<text x="810" y="182" font-size="13" fill="#2dd4bf" text-anchor="middle" font-weight="700">OPTIMIZATION MECHANISM &#8594;</text>
<rect x="290" y="190" width="250" height="64" rx="7" fill="#141d21" stroke="#1c8577" stroke-width="1.5"/>
<text x="415.0" y="215" font-size="13" fill="#e6edf0" text-anchor="middle" font-weight="600">Critic-free group PG</text>
<text x="415.0" y="232" font-size="10" fill="#7d919b" text-anchor="middle">GRPO / RLOO / DAPO / GSPO</text>
<text x="415.0" y="247" font-size="10.5" fill="#2dd4bf" text-anchor="middle" font-weight="600">n = 49</text>
<rect x="550" y="190" width="250" height="64" rx="7" fill="#141d21" stroke="#1c8577" stroke-width="1.5"/>
<text x="675.0" y="215" font-size="13" fill="#e6edf0" text-anchor="middle" font-weight="600">Actor-critic PPO</text>
<text x="675.0" y="232" font-size="10" fill="#7d919b" text-anchor="middle">learned value function</text>
<text x="675.0" y="247" font-size="10.5" fill="#2dd4bf" text-anchor="middle" font-weight="600">n = 17</text>
<rect x="810" y="190" width="250" height="64" rx="7" fill="#141d21" stroke="#1c8577" stroke-width="1.5"/>
<text x="935.0" y="215" font-size="13" fill="#e6edf0" text-anchor="middle" font-weight="600">Search / tree-guided</text>
<text x="935.0" y="232" font-size="10" fill="#7d919b" text-anchor="middle">MCTS over steps / proofs</text>
<text x="935.0" y="247" font-size="10.5" fill="#2dd4bf" text-anchor="middle" font-weight="600">n = 4</text>
<rect x="1070" y="190" width="250" height="64" rx="7" fill="#141d21" stroke="#1c8577" stroke-width="1.5"/>
<text x="1195.0" y="215" font-size="13" fill="#e6edf0" text-anchor="middle" font-weight="600">Rejection &amp; self-play</text>
<text x="1195.0" y="232" font-size="10" fill="#7d919b" text-anchor="middle">ReST / STaR / self-play</text>
<text x="1195.0" y="247" font-size="10.5" fill="#2dd4bf" text-anchor="middle" font-weight="600">n = 6</text>
<rect x="30" y="254" width="250" height="104" rx="7" fill="#141d21" stroke="#1c8577" stroke-width="1.5"/>
<text x="155.0" y="292" font-size="13" fill="#e6edf0" text-anchor="middle" font-weight="600">Rule-based verifiable</text>
<text x="155.0" y="312" font-size="9.8" fill="#7d919b" text-anchor="middle">deterministic checker: answer / test / format</text>
<text x="155.0" y="334" font-size="10.5" fill="#2dd4bf" text-anchor="middle" font-weight="600">n = 23</text>
<rect x="290" y="254" width="250" height="104" rx="7" fill="#12242a" stroke="#22333a" stroke-width="1"/>
<rect x="290" y="254" width="250" height="104" rx="7" fill="#2dd4bf" fill-opacity="0.266"/>
<text x="415.0" y="315.0" font-size="26" fill="#e6edf0" text-anchor="middle" font-weight="700">19</text>
<rect x="550" y="254" width="250" height="104" rx="7" fill="#12242a" stroke="#22333a" stroke-width="1"/>
<rect x="550" y="254" width="250" height="104" rx="7" fill="#2dd4bf" fill-opacity="0.056"/>
<text x="675.0" y="315.0" font-size="26" fill="#e6edf0" text-anchor="middle" font-weight="700">4</text>
<rect x="810" y="254" width="250" height="104" rx="7" fill="#0f1719" stroke="#22333a" stroke-width="1"/>
<text x="935.0" y="312.0" font-size="15" fill="#3a4a50" text-anchor="middle">&#8212;</text>
<rect x="1070" y="254" width="250" height="104" rx="7" fill="#0f1719" stroke="#22333a" stroke-width="1"/>
<text x="1195.0" y="312.0" font-size="15" fill="#3a4a50" text-anchor="middle">&#8212;</text>
<rect x="30" y="368" width="250" height="104" rx="7" fill="#141d21" stroke="#1c8577" stroke-width="1.5"/>
<text x="155.0" y="406" font-size="13" fill="#e6edf0" text-anchor="middle" font-weight="600">Execution-grounded</text>
<text x="155.0" y="426" font-size="9.8" fill="#7d919b" text-anchor="middle">reward from running code, SQL, tool, search</text>
<text x="155.0" y="448" font-size="10.5" fill="#2dd4bf" text-anchor="middle" font-weight="600">n = 29</text>
<rect x="290" y="368" width="250" height="104" rx="7" fill="#12242a" stroke="#22333a" stroke-width="1"/>
<rect x="290" y="368" width="250" height="104" rx="7" fill="#2dd4bf" fill-opacity="0.224"/>
<text x="415.0" y="429.0" font-size="26" fill="#e6edf0" text-anchor="middle" font-weight="700">16</text>
<rect x="550" y="368" width="250" height="104" rx="7" fill="#12242a" stroke="#22333a" stroke-width="1"/>
<rect x="550" y="368" width="250" height="104" rx="7" fill="#2dd4bf" fill-opacity="0.098"/>
<text x="675.0" y="429.0" font-size="26" fill="#e6edf0" text-anchor="middle" font-weight="700">7</text>
<rect x="810" y="368" width="250" height="104" rx="7" fill="#12242a" stroke="#22333a" stroke-width="1"/>
<rect x="810" y="368" width="250" height="104" rx="7" fill="#2dd4bf" fill-opacity="0.028"/>
<text x="935.0" y="429.0" font-size="26" fill="#e6edf0" text-anchor="middle" font-weight="700">2</text>
<rect x="1070" y="368" width="250" height="104" rx="7" fill="#12242a" stroke="#22333a" stroke-width="1"/>
<rect x="1070" y="368" width="250" height="104" rx="7" fill="#2dd4bf" fill-opacity="0.056"/>
<text x="1195.0" y="429.0" font-size="26" fill="#e6edf0" text-anchor="middle" font-weight="700">4</text>
<rect x="30" y="482" width="250" height="104" rx="7" fill="#141d21" stroke="#1c8577" stroke-width="1.5"/>
<text x="155.0" y="520" font-size="13" fill="#e6edf0" text-anchor="middle" font-weight="600">Learned reward model</text>
<text x="155.0" y="540" font-size="9.8" fill="#7d919b" text-anchor="middle">trained scalar / process / rubric scorer</text>
<text x="155.0" y="562" font-size="10.5" fill="#2dd4bf" text-anchor="middle" font-weight="600">n = 20</text>
<text x="155.0" y="577" font-size="8.6" fill="#7d919b" text-anchor="middle">(5 define reward only)</text>
<rect x="290" y="482" width="250" height="104" rx="7" fill="#12242a" stroke="#22333a" stroke-width="1"/>
<rect x="290" y="482" width="250" height="104" rx="7" fill="#2dd4bf" fill-opacity="0.098"/>
<text x="415.0" y="543.0" font-size="26" fill="#e6edf0" text-anchor="middle" font-weight="700">7</text>
<rect x="550" y="482" width="250" height="104" rx="7" fill="#12242a" stroke="#22333a" stroke-width="1"/>
<rect x="550" y="482" width="250" height="104" rx="7" fill="#2dd4bf" fill-opacity="0.084"/>
<text x="675.0" y="543.0" font-size="26" fill="#e6edf0" text-anchor="middle" font-weight="700">6</text>
<rect x="810" y="482" width="250" height="104" rx="7" fill="#12242a" stroke="#22333a" stroke-width="1"/>
<rect x="810" y="482" width="250" height="104" rx="7" fill="#2dd4bf" fill-opacity="0.028"/>
<text x="935.0" y="543.0" font-size="26" fill="#e6edf0" text-anchor="middle" font-weight="700">2</text>
<rect x="1070" y="482" width="250" height="104" rx="7" fill="#0f1719" stroke="#22333a" stroke-width="1"/>
<text x="1195.0" y="540.0" font-size="15" fill="#3a4a50" text-anchor="middle">&#8212;</text>
<rect x="30" y="596" width="250" height="104" rx="7" fill="#141d21" stroke="#1c8577" stroke-width="1.5"/>
<text x="155.0" y="634" font-size="13" fill="#e6edf0" text-anchor="middle" font-weight="600">Generative / LLM-judge</text>
<text x="155.0" y="654" font-size="9.8" fill="#7d919b" text-anchor="middle">prompted or RL-trained judge; self-reward</text>
<text x="155.0" y="676" font-size="10.5" fill="#2dd4bf" text-anchor="middle" font-weight="600">n = 13</text>
<text x="155.0" y="691" font-size="8.6" fill="#7d919b" text-anchor="middle">(4 define reward only)</text>
<rect x="290" y="596" width="250" height="104" rx="7" fill="#12242a" stroke="#22333a" stroke-width="1"/>
<rect x="290" y="596" width="250" height="104" rx="7" fill="#2dd4bf" fill-opacity="0.098"/>
<text x="415.0" y="657.0" font-size="26" fill="#e6edf0" text-anchor="middle" font-weight="700">7</text>
<rect x="550" y="596" width="250" height="104" rx="7" fill="#0f1719" stroke="#22333a" stroke-width="1"/>
<text x="675.0" y="654.0" font-size="15" fill="#3a4a50" text-anchor="middle">&#8212;</text>
<rect x="810" y="596" width="250" height="104" rx="7" fill="#0f1719" stroke="#22333a" stroke-width="1"/>
<text x="935.0" y="654.0" font-size="15" fill="#3a4a50" text-anchor="middle">&#8212;</text>
<rect x="1070" y="596" width="250" height="104" rx="7" fill="#12242a" stroke="#22333a" stroke-width="1"/>
<rect x="1070" y="596" width="250" height="104" rx="7" fill="#2dd4bf" fill-opacity="0.028"/>
<text x="1195.0" y="657.0" font-size="26" fill="#e6edf0" text-anchor="middle" font-weight="700">2</text>
<rect x="30" y="728" width="1290" height="96" rx="8" fill="#141d21" stroke="#2dd4bf" stroke-width="1.2" stroke-dasharray="5 4"/>
<text x="700.0" y="752" font-size="13.5" fill="#e6edf0" text-anchor="middle" font-weight="700">Cross-cutting (root): 33 papers that study or enable the enterprise rather than instantiate one reward &#215; optimizer cell</text>
<text x="700.0" y="774" font-size="11" fill="#7d919b" text-anchor="middle">Specialization dynamics: elicit-vs-teach, forgetting, generalization  (13)</text>
<text x="700.0" y="791" font-size="11" fill="#7d919b" text-anchor="middle">Data &amp; curriculum construction: selection, difficulty filtering, synthesis  (10)</text>
<text x="700.0" y="808" font-size="11" fill="#7d919b" text-anchor="middle">Reward hacking &amp; over-optimization analyses  (4)   ·   RL systems / frameworks  (2 + more)</text>
<text x="700.0" y="844" font-size="10" fill="#55666d" text-anchor="middle">Original figure, this survey. Cells count papers whose method occupies that reward &#215; optimization node; some reward-modeling papers define a reward source without a policy loop.</text>
</svg>