<svg xmlns="http://www.w3.org/2000/svg" viewBox="0 0 320 200"><rect width="320" height="200" fill="#10171a"/><circle cx="20" cy="20" r="2" fill="#1e2a30"/><circle cx="20" cy="52" r="2" fill="#1e2a30"/><circle cx="20" cy="84" r="2" fill="#1e2a30"/><circle cx="20" cy="116" r="2" fill="#1e2a30"/><circle cx="20" cy="148" r="2" fill="#1e2a30"/><circle cx="52" cy="20" r="2" fill="#1e2a30"/><circle cx="52" cy="52" r="2" fill="#1e2a30"/><circle cx="52" cy="84" r="2" fill="#1e2a30"/><circle cx="52" cy="116" r="2" fill="#1e2a30"/><circle cx="52" cy="148" r="2" fill="#1e2a30"/><circle cx="84" cy="20" r="2" fill="#1e2a30"/><circle cx="84" cy="52" r="2" fill="#1e2a30"/><circle cx="84" cy="84" r="2" fill="#1e2a30"/><circle cx="84" cy="116" r="2" fill="#1e2a30"/><circle cx="84" cy="148" r="2" fill="#1e2a30"/><circle cx="116" cy="20" r="2" fill="#1e2a30"/><circle cx="116" cy="52" r="2" fill="#1e2a30"/><circle cx="116" cy="84" r="2" fill="#1e2a30"/><circle cx="116" cy="116" r="2" fill="#1e2a30"/><circle cx="116" cy="148" r="2" fill="#1e2a30"/><circle cx="148" cy="20" r="2" fill="#1e2a30"/><circle cx="148" cy="52" r="2" fill="#1e2a30"/><circle cx="148" cy="84" r="2" fill="#1e2a30"/><circle cx="148" cy="116" r="2" fill="#1e2a30"/><circle cx="148" cy="148" r="2" fill="#1e2a30"/><circle cx="180" cy="20" r="2" fill="#1e2a30"/><circle cx="180" cy="52" r="2" fill="#1e2a30"/><circle cx="180" cy="84" r="2" fill="#1e2a30"/><circle cx="180" cy="116" r="2" fill="#1e2a30"/><circle cx="180" cy="148" r="2" fill="#1e2a30"/><circle cx="212" cy="20" r="2" fill="#1e2a30"/><circle cx="212" cy="52" r="2" fill="#1e2a30"/><circle cx="212" cy="84" r="2" fill="#1e2a30"/><circle cx="212" cy="116" r="2" fill="#1e2a30"/><circle cx="212" cy="148" r="2" fill="#1e2a30"/><circle cx="244" cy="20" r="2" fill="#1e2a30"/><circle cx="244" cy="52" r="2" fill="#1e2a30"/><circle cx="244" cy="84" r="2" fill="#1e2a30"/><circle cx="244" cy="116" r="2" fill="#1e2a30"/><circle cx="244" cy="148" r="2" fill="#1e2a30"/><circle cx="276" cy="20" r="2" fill="#1e2a30"/><circle cx="276" cy="52" r="2" fill="#1e2a30"/><circle cx="276" cy="84" r="2" fill="#1e2a30"/><circle cx="276" cy="116" r="2" fill="#1e2a30"/><circle cx="276" cy="148" r="2" fill="#1e2a30"/><circle cx="308" cy="20" r="2" fill="#1e2a30"/><circle cx="308" cy="52" r="2" fill="#1e2a30"/><circle cx="308" cy="84" r="2" fill="#1e2a30"/><circle cx="308" cy="116" r="2" fill="#1e2a30"/><circle cx="308" cy="148" r="2" fill="#1e2a30"/><text x="160" y="114" text-anchor="middle" font-family="ui-monospace, monospace" font-size="52" font-weight="700" fill="#2dd4bf">P</text></svg>
