<svg xmlns="http://www.w3.org/2000/svg" viewBox="0 0 320 200">
  <rect width="320" height="200" fill="#10171a"/>
  <g fill="none" stroke="#1e2a30" stroke-width="1.5">
    <line x1="160" y1="46" x2="90" y2="110"/>
    <line x1="160" y1="46" x2="160" y2="110"/>
    <line x1="160" y1="46" x2="230" y2="110"/>
    <line x1="90" y1="110" x2="60" y2="160"/>
    <line x1="90" y1="110" x2="110" y2="160"/>
    <line x1="230" y1="110" x2="210" y2="160"/>
    <line x1="230" y1="110" x2="260" y2="160"/>
  </g>
  <g fill="none" stroke="#1e2a30" stroke-width="1.5" stroke-dasharray="3 4">
    <line x1="160" y1="110" x2="160" y2="160"/>
  </g>
  <circle cx="160" cy="46" r="7" fill="#10171a" stroke="#55707b" stroke-width="1.5"/>
  <circle cx="90" cy="110" r="6" fill="#10171a" stroke="#55707b" stroke-width="1.5"/>
  <circle cx="160" cy="110" r="6" fill="#10171a" stroke="#2dd4bf" stroke-width="1.5" stroke-dasharray="2 3"/>
  <circle cx="230" cy="110" r="6" fill="#10171a" stroke="#55707b" stroke-width="1.5"/>
  <circle cx="60" cy="160" r="5" fill="#10171a" stroke="#55707b" stroke-width="1.5"/>
  <circle cx="110" cy="160" r="5" fill="#10171a" stroke="#55707b" stroke-width="1.5"/>
  <circle cx="210" cy="160" r="5" fill="#10171a" stroke="#55707b" stroke-width="1.5"/>
  <circle cx="260" cy="160" r="5" fill="#10171a" stroke="#55707b" stroke-width="1.5"/>
  <text x="160" y="186" text-anchor="middle" font-family="ui-monospace, monospace" font-size="10" letter-spacing="0.05em" fill="#55707b">taxonomy pending</text>
</svg>
