<svg viewBox="0 0 2020 1700" xmlns="http://www.w3.org/2000/svg" font-family="Inter, ui-sans-serif, system-ui, sans-serif">
<rect x="0.0" y="0.0" width="2020.0" height="1700.0" rx="0" fill="#0a0e0f"/>
<text x="1010.0" y="34.0" font-size="19" fill="#e6edf0" text-anchor="middle" font-weight="700">Stoicism: founding, dormancy, and two revivals that converge</text>
<text x="1010.0" y="56.0" font-size="12" fill="#7d919b" text-anchor="middle">axis compressed at the ~1,350-year gap between antiquity and Neostoicism; corpus: 101 sources, c. 300 BCE–2025</text>
<rect x="80.0" y="76.0" width="314.0" height="40.0" rx="6" fill="#141d21" stroke="#8a6a2f" stroke-width="1.2"/>
<text x="237.0" y="93.0" font-size="11" fill="#7d919b" text-anchor="middle" font-style="italic">Founding &amp; Old Stoa (c. 300–230 BCE)</text>
<text x="237.0" y="108.0" font-size="9" fill="#7d919b" text-anchor="middle" font-style="italic">no primary texts survive</text>
<rect x="400.0" y="76.0" width="904.0" height="40.0" rx="6" fill="#141d21" stroke="#8a6a2f" stroke-width="1.2"/>
<text x="852.0" y="101.0" font-size="11" fill="#7d919b" text-anchor="middle" font-style="italic">Roman Stoa: ethics as practice, plus ancient testimony &amp; critique (45 BCE–225 CE)</text>
<rect x="1450.0" y="76.0" width="424.0" height="40.0" rx="6" fill="#141d21" stroke="#8a6a2f" stroke-width="1.2"/>
<text x="1662.0" y="101.0" font-size="11" fill="#7d919b" text-anchor="middle" font-style="italic">Neostoic revival &amp; the critique that follows (1584–1807)</text>
<line x1="80.0" y1="470.0" x2="1880.0" y2="470.0" stroke="#2a3a40" stroke-width="2"/>
<polygon points="180.0,463.0 187.0,470.0 180.0,477.0 173.0,470.0" fill="#2dd4bf" stroke="#06211d" stroke-width="1.2"/>
<line x1="180.0" y1="470.0" x2="180.0" y2="392.0" stroke="#2dd4bf" stroke-width="1.1" stroke-dasharray="2,2"/>
<rect x="80.0" y="348.0" width="200.0" height="44.0" rx="6" fill="#141d21" stroke="#2dd4bf" stroke-width="1.3"/>
<text x="180.0" y="365.0" font-size="11.2" fill="#e6edf0" text-anchor="middle" font-weight="600">Zeno founds the Stoa</text>
<text x="180.0" y="380.0" font-size="9.3" fill="#7d919b" text-anchor="middle">breaks from the Cynics &amp; Academy — c. 300 BCE</text>
<polygon points="320.0,463.0 327.0,470.0 320.0,477.0 313.0,470.0" fill="#2dd4bf" stroke="#06211d" stroke-width="1.2"/>
<line x1="320.0" y1="470.0" x2="320.0" y2="450.0" stroke="#2dd4bf" stroke-width="1.1" stroke-dasharray="2,2"/>
<rect x="215.0" y="406.0" width="210.0" height="44.0" rx="6" fill="#141d21" stroke="#2dd4bf" stroke-width="1.3"/>
<text x="320.0" y="423.0" font-size="11.2" fill="#e6edf0" text-anchor="middle" font-weight="600">Chrysippus systematizes</text>
<text x="320.0" y="438.0" font-size="9.3" fill="#7d919b" text-anchor="middle">logic, physics, ethics as one system — c. 230 BCE</text>
<circle cx="430.0" cy="470.0" r="5.5" fill="#2dd4bf" stroke="#06211d" stroke-width="1.2"/>
<line x1="430.0" y1="470.0" x2="430.0" y2="334.0" stroke="#2dd4bf" stroke-width="1.1" stroke-dasharray="2,2"/>
<rect x="315.0" y="290.0" width="230.0" height="44.0" rx="6" fill="#141d21" stroke="#2dd4bf" stroke-width="1.3"/>
<text x="430.0" y="307.0" font-size="11.2" fill="#e6edf0" text-anchor="middle" font-weight="600">Cicero's Stoic dialogues</text>
<text x="430.0" y="322.0" font-size="9.3" fill="#7d919b" text-anchor="middle">De Finibus III, De Natura Deorum II, De Fato — 45–44 BCE</text>
<circle cx="494.4" cy="470.0" r="5.5" fill="#2dd4bf" stroke="#06211d" stroke-width="1.2"/>
<line x1="494.4" y1="470.0" x2="494.4" y2="392.0" stroke="#2dd4bf" stroke-width="1.1" stroke-dasharray="2,2"/>
<rect x="386.9" y="348.0" width="215.0" height="44.0" rx="6" fill="#141d21" stroke="#2dd4bf" stroke-width="1.3"/>
<text x="494.4" y="365.0" font-size="11.2" fill="#e6edf0" text-anchor="middle" font-weight="600">Arius Didymus's Epitome</text>
<text x="494.4" y="380.0" font-size="9.3" fill="#7d919b" text-anchor="middle">systematic doxography of Old Stoic ethics — 25 BCE</text>
<circle cx="752.2" cy="470.0" r="5.5" fill="#2dd4bf" stroke="#06211d" stroke-width="1.2"/>
<line x1="752.2" y1="470.0" x2="752.2" y2="278.0" stroke="#2dd4bf" stroke-width="1.1" stroke-dasharray="2,2"/>
<rect x="637.2" y="234.0" width="230.0" height="44.0" rx="6" fill="#141d21" stroke="#2dd4bf" stroke-width="1.3"/>
<text x="752.2" y="251.0" font-size="11.2" fill="#e6edf0" text-anchor="middle" font-weight="600">Seneca's dialogues &amp; Letters</text>
<text x="752.2" y="266.0" font-size="9.3" fill="#7d919b" text-anchor="middle">ethics-as-therapy for a Roman audience — 45–65 CE</text>
<circle cx="800.6" cy="470.0" r="5.5" fill="#2dd4bf" stroke="#06211d" stroke-width="1.2"/>
<line x1="800.6" y1="470.0" x2="800.6" y2="392.0" stroke="#2dd4bf" stroke-width="1.1" stroke-dasharray="2,2"/>
<rect x="688.1" y="348.0" width="225.0" height="44.0" rx="6" fill="#141d21" stroke="#2dd4bf" stroke-width="1.3"/>
<text x="800.6" y="365.0" font-size="11.2" fill="#e6edf0" text-anchor="middle" font-weight="600">Musonius Rufus's Lectures</text>
<text x="800.6" y="380.0" font-size="9.3" fill="#7d919b" text-anchor="middle">training (askesis), not theory, makes one good — 70 CE</text>
<circle cx="897.2" cy="470.0" r="5.5" fill="#f2757f" stroke="#06211d" stroke-width="1.2"/>
<line x1="897.2" y1="470.0" x2="897.2" y2="222.0" stroke="#f2757f" stroke-width="1.1" stroke-dasharray="2,2"/>
<rect x="779.7" y="178.0" width="235.0" height="44.0" rx="6" fill="#141d21" stroke="#f2757f" stroke-width="1.3"/>
<text x="897.2" y="195.0" font-size="11.2" fill="#e6edf0" text-anchor="middle" font-weight="600">Plutarch's anti-Stoic polemics</text>
<text x="897.2" y="210.0" font-size="9.3" fill="#7d919b" text-anchor="middle">hostile but fragment-rich Chrysippus source — 100 CE</text>
<circle cx="961.7" cy="470.0" r="5.5" fill="#2dd4bf" stroke="#06211d" stroke-width="1.2"/>
<line x1="961.7" y1="470.0" x2="961.7" y2="334.0" stroke="#2dd4bf" stroke-width="1.1" stroke-dasharray="2,2"/>
<rect x="836.7" y="290.0" width="250.0" height="44.0" rx="6" fill="#141d21" stroke="#2dd4bf" stroke-width="1.3"/>
<text x="961.7" y="307.0" font-size="11.2" fill="#e6edf0" text-anchor="middle" font-weight="600">Epictetus's Discourses &amp; Enchiridion</text>
<text x="961.7" y="322.0" font-size="9.3" fill="#7d919b" text-anchor="middle">the dichotomy of control as training manual — 108–135 CE</text>
<circle cx="1155.0" cy="470.0" r="5.5" fill="#2dd4bf" stroke="#06211d" stroke-width="1.2"/>
<line x1="1155.0" y1="470.0" x2="1155.0" y2="450.0" stroke="#2dd4bf" stroke-width="1.1" stroke-dasharray="2,2"/>
<rect x="1035.0" y="406.0" width="240.0" height="44.0" rx="6" fill="#141d21" stroke="#2dd4bf" stroke-width="1.3"/>
<text x="1155.0" y="423.0" font-size="11.2" fill="#e6edf0" text-anchor="middle" font-weight="600">Marcus Aurelius's Meditations</text>
<text x="1155.0" y="438.0" font-size="9.3" fill="#7d919b" text-anchor="middle">a private notebook, terminal Roman Stoic text — 180 CE</text>
<circle cx="1203.3" cy="470.0" r="5.5" fill="#f2757f" stroke="#06211d" stroke-width="1.2"/>
<line x1="1203.3" y1="470.0" x2="1203.3" y2="278.0" stroke="#f2757f" stroke-width="1.1" stroke-dasharray="2,2"/>
<rect x="1068.3" y="234.0" width="270.0" height="44.0" rx="6" fill="#141d21" stroke="#f2757f" stroke-width="1.3"/>
<text x="1203.3" y="251.0" font-size="11.2" fill="#e6edf0" text-anchor="middle" font-weight="600">Sextus &amp; Alexander of Aphrodisias</text>
<text x="1203.3" y="266.0" font-size="9.3" fill="#7d919b" text-anchor="middle">skeptical &amp; Peripatetic critiques of Stoic logic/fate — 180–200 CE</text>
<circle cx="1300.0" cy="470.0" r="5.5" fill="#2dd4bf" stroke="#06211d" stroke-width="1.2"/>
<line x1="1300.0" y1="470.0" x2="1300.0" y2="392.0" stroke="#2dd4bf" stroke-width="1.1" stroke-dasharray="2,2"/>
<rect x="1187.5" y="348.0" width="225.0" height="44.0" rx="6" fill="#141d21" stroke="#2dd4bf" stroke-width="1.3"/>
<text x="1300.0" y="365.0" font-size="11.2" fill="#e6edf0" text-anchor="middle" font-weight="600">Diogenes Laertius's Lives</text>
<text x="1300.0" y="380.0" font-size="9.3" fill="#7d919b" text-anchor="middle">closes ancient testimony on the school — 225 CE</text>
<line x1="80.0" y1="470.0" x2="1880.0" y2="470.0" stroke="#2a3a40" stroke-width="2"/>
<line x1="1350.0" y1="456.0" x2="1360.0" y2="484.0" stroke="#7d919b" stroke-width="2"/>
<line x1="1392.0" y1="456.0" x2="1402.0" y2="484.0" stroke="#7d919b" stroke-width="2"/>
<line x1="1434.0" y1="456.0" x2="1444.0" y2="484.0" stroke="#7d919b" stroke-width="2"/>
<text x="1380.0" y="436.0" font-size="12" fill="#7d919b" text-anchor="middle" font-weight="600">≈ 1,350 years</text>
<text x="1380.0" y="516.0" font-size="10" fill="#7d919b" text-anchor="middle" font-style="italic">no institutional Stoic teaching survives</text>
<text x="1380.0" y="530.0" font-size="9" fill="#7d919b" text-anchor="middle" font-style="italic">(inference: the corpus has no corpus</text>
<text x="1380.0" y="542.0" font-size="9" fill="#7d919b" text-anchor="middle" font-style="italic">entries between 225 and 1584 CE)</text>
<circle cx="1520.0" cy="470.0" r="5.5" fill="#d9a94e" stroke="#06211d" stroke-width="1.2"/>
<line x1="1520.0" y1="470.0" x2="1520.0" y2="294.0" stroke="#d9a94e" stroke-width="1.1" stroke-dasharray="2,2"/>
<rect x="1390.0" y="250.0" width="260.0" height="44.0" rx="6" fill="#141d21" stroke="#d9a94e" stroke-width="1.3"/>
<text x="1520.0" y="267.0" font-size="11.2" fill="#e6edf0" text-anchor="middle" font-weight="600">Lipsius's De Constantia &amp; Politica</text>
<text x="1520.0" y="282.0" font-size="9.3" fill="#7d919b" text-anchor="middle">re-founds Stoicism for a Christian, post-civil-war readership — 1584/1589</text>
<circle cx="1680.0" cy="470.0" r="5.5" fill="#d9a94e" stroke="#06211d" stroke-width="1.2"/>
<line x1="1680.0" y1="470.0" x2="1680.0" y2="414.0" stroke="#d9a94e" stroke-width="1.1" stroke-dasharray="2,2"/>
<rect x="1555.0" y="370.0" width="250.0" height="44.0" rx="6" fill="#141d21" stroke="#d9a94e" stroke-width="1.3"/>
<text x="1680.0" y="387.0" font-size="11.2" fill="#e6edf0" text-anchor="middle" font-weight="600">du Vair's Morall Philosophy of the Stoicks</text>
<text x="1680.0" y="402.0" font-size="9.3" fill="#7d919b" text-anchor="middle">independent second Neostoic founding text — 1585</text>
<circle cx="1830.0" cy="470.0" r="5.5" fill="#f2757f" stroke="#06211d" stroke-width="1.2"/>
<line x1="1830.0" y1="470.0" x2="1830.0" y2="214.0" stroke="#f2757f" stroke-width="1.1" stroke-dasharray="2,2"/>
<rect x="1712.5" y="170.0" width="235.0" height="44.0" rx="6" fill="#141d21" stroke="#f2757f" stroke-width="1.3"/>
<text x="1830.0" y="187.0" font-size="11.2" fill="#e6edf0" text-anchor="middle" font-weight="600">Hegel's Phenomenology of Spirit</text>
<text x="1830.0" y="202.0" font-size="9.3" fill="#7d919b" text-anchor="middle">Stoic freedom as merely formal, “a slave's response” — 1807</text>
<text x="90.0" y="570.0" font-size="9.6" fill="#7d919b" text-anchor="start">transmission from Lipsius into political thought (Grotius, Hobbes, Rousseau) and into Descartes's and Spinoza's rationalism runs through this span — no single dated corpus entry, so shown as a span rather than a node</text>
<text x="90.0" y="700.0" font-size="14" fill="#e6edf0" text-anchor="start" font-weight="600">20th century: the ethics survives the physics, and splits into two lineages</text>
<text x="90.0" y="718.0" font-size="9.6" fill="#7d919b" text-anchor="start">(inference: framed here as a split because both lineages independently trace to the same primary texts — Epictetus, Marcus Aurelius — without citing each other until Robertson 2010)</text>
<text x="90.0" y="802.0" font-size="12" fill="#2dd4bf" text-anchor="start" font-weight="600">Academic recovery of the ancient system</text>
<line x1="160.0" y1="810.0" x2="1800.0" y2="810.0" stroke="#2dd4bf" stroke-width="1.1" stroke-dasharray="3,3"/>
<circle cx="152.0" cy="810.0" r="4" fill="#2dd4bf" stroke="#06211d" stroke-width="1.2"/>
<circle cx="160.0" cy="810.0" r="5.5" fill="#2dd4bf" stroke="#06211d" stroke-width="1.2"/>
<line x1="160.0" y1="810.0" x2="160.0" y2="826.0" stroke="#2dd4bf" stroke-width="1.1" stroke-dasharray="2,2"/>
<rect x="60.0" y="826.0" width="200.0" height="44.0" rx="6" fill="#141d21" stroke="#2dd4bf" stroke-width="1.3"/>
<text x="160.0" y="843.0" font-size="11.2" fill="#e6edf0" text-anchor="middle" font-weight="600">Mates's Stoic Logic</text>
<text x="160.0" y="858.0" font-size="9.3" fill="#7d919b" text-anchor="middle">Stoic propositional logic as rigorous system — 1953</text>
<circle cx="1138.2" cy="810.0" r="5.5" fill="#2dd4bf" stroke="#06211d" stroke-width="1.2"/>
<line x1="1138.2" y1="810.0" x2="1138.2" y2="794.0" stroke="#2dd4bf" stroke-width="1.1" stroke-dasharray="2,2"/>
<rect x="1013.2" y="750.0" width="250.0" height="44.0" rx="6" fill="#141d21" stroke="#2dd4bf" stroke-width="1.3"/>
<text x="1138.2" y="767.0" font-size="11.2" fill="#e6edf0" text-anchor="middle" font-weight="600">Long &amp; Sedley's Hellenistic Philosophers</text>
<text x="1138.2" y="782.0" font-size="9.3" fill="#7d919b" text-anchor="middle">the field's standard sourcebook — 1987</text>
<circle cx="1310.9" cy="810.0" r="5.5" fill="#2dd4bf" stroke="#06211d" stroke-width="1.2"/>
<line x1="1310.9" y1="810.0" x2="1310.9" y2="826.0" stroke="#2dd4bf" stroke-width="1.1" stroke-dasharray="2,2"/>
<rect x="1193.4" y="826.0" width="235.0" height="44.0" rx="6" fill="#141d21" stroke="#2dd4bf" stroke-width="1.3"/>
<text x="1310.9" y="843.0" font-size="11.2" fill="#e6edf0" text-anchor="middle" font-weight="600">Annas's Morality of Happiness</text>
<text x="1310.9" y="858.0" font-size="9.3" fill="#7d919b" text-anchor="middle">standard eudaimonist-ethics reconstruction — 1993</text>
<circle cx="1411.6" cy="810.0" r="5.5" fill="#2dd4bf" stroke="#06211d" stroke-width="1.2"/>
<line x1="1411.6" y1="810.0" x2="1411.6" y2="794.0" stroke="#2dd4bf" stroke-width="1.1" stroke-dasharray="2,2"/>
<rect x="1276.6" y="750.0" width="270.0" height="44.0" rx="6" fill="#141d21" stroke="#2dd4bf" stroke-width="1.3"/>
<text x="1411.6" y="767.0" font-size="11.2" fill="#e6edf0" text-anchor="middle" font-weight="600">Hadot's Way of Life &amp; Inner Citadel</text>
<text x="1411.6" y="782.0" font-size="9.3" fill="#7d919b" text-anchor="middle">“spiritual exercises” as the practice-reading lens — 1995/1998</text>
<text x="90.0" y="942.0" font-size="12" fill="#f2757f" text-anchor="start" font-weight="600">Philosophical critique of the passions doctrine</text>
<line x1="160.0" y1="950.0" x2="1800.0" y2="950.0" stroke="#f2757f" stroke-width="1.1" stroke-dasharray="3,3"/>
<circle cx="152.0" cy="950.0" r="4" fill="#f2757f" stroke="#06211d" stroke-width="1.2"/>
<circle cx="1426.0" cy="950.0" r="5.5" fill="#f2757f" stroke="#06211d" stroke-width="1.2"/>
<line x1="1426.0" y1="950.0" x2="1426.0" y2="966.0" stroke="#f2757f" stroke-width="1.1" stroke-dasharray="2,2"/>
<rect x="1276.0" y="966.0" width="300.0" height="44.0" rx="6" fill="#141d21" stroke="#f2757f" stroke-width="1.3"/>
<text x="1426.0" y="983.0" font-size="11.2" fill="#e6edf0" text-anchor="middle" font-weight="600">Nussbaum's Therapy of Desire &amp; Sorabji's Emotion and Peace of Mind</text>
<text x="1426.0" y="998.0" font-size="9.3" fill="#7d919b" text-anchor="middle">is extirpating the passions psychologically adequate? — 1994/2000</text>
<text x="90.0" y="1092.0" font-size="12" fill="#d9a94e" text-anchor="start" font-weight="600">Clinical borrowing into psychotherapy</text>
<line x1="160.0" y1="1100.0" x2="1800.0" y2="1100.0" stroke="#d9a94e" stroke-width="1.1" stroke-dasharray="3,3"/>
<circle cx="152.0" cy="1100.0" r="4" fill="#d9a94e" stroke="#06211d" stroke-width="1.2"/>
<circle cx="418.9" cy="1100.0" r="5.5" fill="#d9a94e" stroke="#06211d" stroke-width="1.2"/>
<line x1="418.9" y1="1100.0" x2="418.9" y2="1116.0" stroke="#d9a94e" stroke-width="1.1" stroke-dasharray="2,2"/>
<rect x="288.9" y="1116.0" width="260.0" height="44.0" rx="6" fill="#141d21" stroke="#d9a94e" stroke-width="1.3"/>
<text x="418.9" y="1133.0" font-size="11.2" fill="#e6edf0" text-anchor="middle" font-weight="600">Ellis's Reason and Emotion in Psychotherapy</text>
<text x="418.9" y="1148.0" font-size="9.3" fill="#7d919b" text-anchor="middle">founds REBT, credits Epictetus directly — 1962</text>
<circle cx="864.9" cy="1100.0" r="5.5" fill="#d9a94e" stroke="#06211d" stroke-width="1.2"/>
<line x1="864.9" y1="1100.0" x2="864.9" y2="1084.0" stroke="#d9a94e" stroke-width="1.1" stroke-dasharray="2,2"/>
<rect x="724.9" y="1040.0" width="280.0" height="44.0" rx="6" fill="#141d21" stroke="#d9a94e" stroke-width="1.3"/>
<text x="864.9" y="1057.0" font-size="11.2" fill="#e6edf0" text-anchor="middle" font-weight="600">Beck's Cognitive Therapy (1976) &amp; of Depression (1979)</text>
<text x="864.9" y="1072.0" font-size="9.3" fill="#7d919b" text-anchor="middle">opens with Epictetus's maxim on judgment</text>
<circle cx="1310.9" cy="1100.0" r="5.5" fill="#d9a94e" stroke="#06211d" stroke-width="1.2"/>
<line x1="1310.9" y1="1100.0" x2="1310.9" y2="1116.0" stroke="#d9a94e" stroke-width="1.1" stroke-dasharray="2,2"/>
<rect x="1170.9" y="1116.0" width="280.0" height="44.0" rx="6" fill="#141d21" stroke="#d9a94e" stroke-width="1.3"/>
<text x="1310.9" y="1133.0" font-size="11.2" fill="#e6edf0" text-anchor="middle" font-weight="600">Montgomery's Ancient Origins of Cognitive Therapy</text>
<text x="1310.9" y="1148.0" font-size="9.3" fill="#7d919b" text-anchor="middle">first scholarly Stoic/CBT comparison — 1993</text>
<circle cx="1800.0" cy="1100.0" r="5.5" fill="#a78bfa" stroke="#06211d" stroke-width="1.2"/>
<line x1="1800.0" y1="1100.0" x2="1800.0" y2="1084.0" stroke="#a78bfa" stroke-width="1.1" stroke-dasharray="2,2"/>
<rect x="1675.0" y="1040.0" width="250.0" height="44.0" rx="6" fill="#141d21" stroke="#a78bfa" stroke-width="1.3"/>
<text x="1800.0" y="1057.0" font-size="11.2" fill="#e6edf0" text-anchor="middle" font-weight="600">Robertson's Philosophy of CBT</text>
<text x="1800.0" y="1072.0" font-size="9.3" fill="#7d919b" text-anchor="middle">bridge: names the lineage scholarly recovery had not yet cited — 2010</text>
<text x="90.0" y="1230.0" font-size="14" fill="#e6edf0" text-anchor="start" font-weight="600">Convergence: the contemporary Modern Stoicism movement — tested and contested (2008–2025)</text>
<line x1="160.0" y1="1490.0" x2="1800.0" y2="1490.0" stroke="#2a3a40" stroke-width="2"/>
<circle cx="160.0" cy="1490.0" r="5.5" fill="#d9a94e" stroke="#06211d" stroke-width="1.2"/>
<line x1="160.0" y1="1490.0" x2="160.0" y2="1334.0" stroke="#d9a94e" stroke-width="1.1" stroke-dasharray="2,2"/>
<rect x="47.5" y="1290.0" width="225.0" height="44.0" rx="6" fill="#141d21" stroke="#d9a94e" stroke-width="1.3"/>
<text x="160.0" y="1307.0" font-size="11.2" fill="#e6edf0" text-anchor="middle" font-weight="600">Irvine's Guide to the Good Life</text>
<text x="160.0" y="1322.0" font-size="9.3" fill="#7d919b" text-anchor="middle">founding popular-revival trade book — 2008</text>
<circle cx="1008.2" cy="1490.0" r="5.5" fill="#d9a94e" stroke="#06211d" stroke-width="1.2"/>
<line x1="1008.2" y1="1490.0" x2="1008.2" y2="1412.0" stroke="#d9a94e" stroke-width="1.1" stroke-dasharray="2,2"/>
<rect x="895.7" y="1368.0" width="225.0" height="44.0" rx="6" fill="#141d21" stroke="#d9a94e" stroke-width="1.3"/>
<text x="1008.2" y="1385.0" font-size="11.2" fill="#e6edf0" text-anchor="middle" font-weight="600">Pigliucci's How to Be a Stoic</text>
<text x="1008.2" y="1400.0" font-size="9.3" fill="#7d919b" text-anchor="middle">flagship popular-revival pitch — 2017</text>
<circle cx="1088.2" cy="1490.0" r="5.5" fill="#2dd4bf" stroke="#06211d" stroke-width="1.2"/>
<line x1="1088.2" y1="1490.0" x2="1088.2" y2="1470.0" stroke="#2dd4bf" stroke-width="1.1" stroke-dasharray="2,2"/>
<rect x="963.2" y="1426.0" width="250.0" height="44.0" rx="6" fill="#141d21" stroke="#2dd4bf" stroke-width="1.3"/>
<text x="1088.2" y="1443.0" font-size="11.2" fill="#e6edf0" text-anchor="middle" font-weight="600">Becker's A New Stoicism</text>
<text x="1088.2" y="1458.0" font-size="9.3" fill="#7d919b" text-anchor="middle">analytic-Neostoic strand, drops the physics — 2017</text>
<circle cx="1221.2" cy="1490.0" r="5.5" fill="#d9a94e" stroke="#06211d" stroke-width="1.2"/>
<line x1="1221.2" y1="1490.0" x2="1221.2" y2="1274.0" stroke="#d9a94e" stroke-width="1.1" stroke-dasharray="2,2"/>
<rect x="1081.2" y="1230.0" width="280.0" height="44.0" rx="6" fill="#141d21" stroke="#d9a94e" stroke-width="1.3"/>
<text x="1221.2" y="1247.0" font-size="11.2" fill="#e6edf0" text-anchor="middle" font-weight="600">Robertson-Codd (2019) &amp; Cavanna (2019)</text>
<text x="1221.2" y="1262.0" font-size="9.3" fill="#7d919b" text-anchor="middle">clinicians formalize the Stoicism-CBT claim</text>
<circle cx="1414.1" cy="1490.0" r="5.5" fill="#d9a94e" stroke="#06211d" stroke-width="1.2"/>
<line x1="1414.1" y1="1490.0" x2="1414.1" y2="1412.0" stroke="#d9a94e" stroke-width="1.1" stroke-dasharray="2,2"/>
<rect x="1284.1" y="1368.0" width="260.0" height="44.0" rx="6" fill="#141d21" stroke="#d9a94e" stroke-width="1.3"/>
<text x="1414.1" y="1385.0" font-size="11.2" fill="#e6edf0" text-anchor="middle" font-weight="600">Whiting &amp; Konstantakos's Being Better</text>
<text x="1414.1" y="1400.0" font-size="9.3" fill="#7d919b" text-anchor="middle">activist strand: climate &amp; social justice — 2021</text>
<circle cx="1485.6" cy="1490.0" r="5.5" fill="#f2757f" stroke="#06211d" stroke-width="1.2"/>
<line x1="1485.6" y1="1490.0" x2="1485.6" y2="1334.0" stroke="#f2757f" stroke-width="1.1" stroke-dasharray="2,2"/>
<rect x="1345.6" y="1290.0" width="280.0" height="44.0" rx="6" fill="#141d21" stroke="#f2757f" stroke-width="1.3"/>
<text x="1485.6" y="1307.0" font-size="11.2" fill="#e6edf0" text-anchor="middle" font-weight="600">Karl et al.'s Misunderstood Stoicism</text>
<text x="1485.6" y="1322.0" font-size="9.3" fill="#7d919b" text-anchor="middle">“naive” popular Stoicism linked to worse well-being — 2022</text>
<circle cx="1555.6" cy="1490.0" r="5.5" fill="#d9a94e" stroke="#06211d" stroke-width="1.2"/>
<line x1="1555.6" y1="1490.0" x2="1555.6" y2="1470.0" stroke="#d9a94e" stroke-width="1.1" stroke-dasharray="2,2"/>
<rect x="1440.6" y="1426.0" width="230.0" height="44.0" rx="6" fill="#141d21" stroke="#d9a94e" stroke-width="1.3"/>
<text x="1555.6" y="1443.0" font-size="11.2" fill="#e6edf0" text-anchor="middle" font-weight="600">LeBon's Report on Stoic Week 2021</text>
<text x="1555.6" y="1458.0" font-size="9.3" fill="#7d919b" text-anchor="middle">the movement's own outcome data — 2022</text>
<circle cx="1607.1" cy="1490.0" r="5.5" fill="#f2757f" stroke="#06211d" stroke-width="1.2"/>
<line x1="1607.1" y1="1490.0" x2="1607.1" y2="1234.0" stroke="#f2757f" stroke-width="1.1" stroke-dasharray="2,2"/>
<rect x="1472.1" y="1190.0" width="270.0" height="44.0" rx="6" fill="#141d21" stroke="#f2757f" stroke-width="1.3"/>
<text x="1607.1" y="1207.0" font-size="11.2" fill="#e6edf0" text-anchor="middle" font-weight="600">Durrant's Three Reasons Not to Be a Stoic</text>
<text x="1607.1" y="1222.0" font-size="9.3" fill="#7d919b" text-anchor="middle">quietism / suppression objections restated — 2023</text>
<circle cx="1751.8" cy="1490.0" r="5.5" fill="#d9a94e" stroke="#06211d" stroke-width="1.2"/>
<line x1="1751.8" y1="1490.0" x2="1751.8" y2="1412.0" stroke="#d9a94e" stroke-width="1.1" stroke-dasharray="2,2"/>
<rect x="1601.8" y="1368.0" width="300.0" height="44.0" rx="6" fill="#141d21" stroke="#d9a94e" stroke-width="1.3"/>
<text x="1751.8" y="1385.0" font-size="11.2" fill="#e6edf0" text-anchor="middle" font-weight="600">Cohen et al.'s RCT (2024) &amp; LeBon et al.'s SABS (2025)</text>
<text x="1751.8" y="1400.0" font-size="9.3" fill="#7d919b" text-anchor="middle">empirical tests converge: an RCT and a validated Stoicism scale</text>
<circle cx="100.0" cy="1660.0" r="6" fill="#2dd4bf" stroke="#06211d" stroke-width="1.2"/>
<text x="116.0" y="1664.0" font-size="11" fill="#7d919b" text-anchor="start">doctrine / primary texts / scholarly reconstruction</text>
<circle cx="560.0" cy="1660.0" r="6" fill="#d9a94e" stroke="#06211d" stroke-width="1.2"/>
<text x="576.0" y="1664.0" font-size="11" fill="#7d919b" text-anchor="start">practice, revival &amp; therapeutic-technique thread</text>
<circle cx="980.0" cy="1660.0" r="6" fill="#f2757f" stroke="#06211d" stroke-width="1.2"/>
<text x="996.0" y="1664.0" font-size="11" fill="#7d919b" text-anchor="start">philosophical critique thread</text>
<circle cx="1300.0" cy="1660.0" r="6" fill="#a78bfa" stroke="#06211d" stroke-width="1.2"/>
<text x="1316.0" y="1664.0" font-size="11" fill="#7d919b" text-anchor="start">bridge source citing both lineages</text>
</svg>
