<svg viewBox="0 0 1560 1074" xmlns="http://www.w3.org/2000/svg" font-family="Inter, ui-sans-serif, system-ui, sans-serif">
<rect x="0" y="0" width="1560" height="1074" fill="#0a0e0f"/>
<text x="780.0" y="34" font-size="19" fill="#e6edf0" text-anchor="middle" font-weight="700">Timeline of RL for LLMs: from RLHF foundations to the DPO / RLVR / agentic-RL branch points</text>
<text x="780.0" y="56" font-size="12" fill="#7d919b" text-anchor="middle">axis compressed before 2015 to give 2022&#8211;2025 branching room to breathe &#8212; corpus: 141 papers, 1992&#8211;2025</text>
<rect x="80" y="76" width="440" height="236" fill="#12242a" fill-opacity="0.55" rx="4"/>
<text x="300.0" y="94" font-size="11.5" fill="#7d919b" text-anchor="middle" font-style="italic">Pre-LLM foundations (1992–2017)</text>
<rect x="520" y="76" width="430" height="236" fill="#141d21" fill-opacity="0.55" rx="4"/>
<text x="735.0" y="94" font-size="11.5" fill="#7d919b" text-anchor="middle" font-style="italic">RLHF pipeline crystallizes (2017–2022)</text>
<rect x="950" y="76" width="540" height="236" fill="#181422" fill-opacity="0.55" rx="4"/>
<text x="1220.0" y="94" font-size="11.5" fill="#7d919b" text-anchor="middle" font-style="italic">DPO / RLVR / agentic branch (2022–2025)</text>
<line x1="80.0" y1="320.0" x2="1490.0" y2="320.0" stroke="#2a3a40" stroke-width="2"/>
<line x1="120.0" y1="314" x2="120.0" y2="326" stroke="#7d919b" stroke-width="1.3"/>
<text x="120.0" y="342" font-size="10.5" fill="#7d919b" text-anchor="middle">1992</text>
<line x1="190.0" y1="314" x2="190.0" y2="326" stroke="#7d919b" stroke-width="1.3"/>
<text x="190.0" y="342" font-size="10.5" fill="#7d919b" text-anchor="middle">1999</text>
<line x1="300.0" y1="314" x2="300.0" y2="326" stroke="#7d919b" stroke-width="1.3"/>
<text x="300.0" y="342" font-size="10.5" fill="#7d919b" text-anchor="middle">2009</text>
<line x1="430.0" y1="314" x2="430.0" y2="326" stroke="#7d919b" stroke-width="1.3"/>
<text x="430.0" y="342" font-size="10.5" fill="#7d919b" text-anchor="middle">2015</text>
<line x1="520.0" y1="314" x2="520.0" y2="326" stroke="#7d919b" stroke-width="1.3"/>
<text x="520.0" y="342" font-size="10.5" fill="#7d919b" text-anchor="middle">2017</text>
<line x1="610.0" y1="314" x2="610.0" y2="326" stroke="#7d919b" stroke-width="1.3"/>
<text x="610.0" y="342" font-size="10.5" fill="#7d919b" text-anchor="middle">2019</text>
<line x1="670.0" y1="314" x2="670.0" y2="326" stroke="#7d919b" stroke-width="1.3"/>
<text x="670.0" y="342" font-size="10.5" fill="#7d919b" text-anchor="middle">2020</text>
<line x1="730.0" y1="314" x2="730.0" y2="326" stroke="#7d919b" stroke-width="1.3"/>
<text x="730.0" y="342" font-size="10.5" fill="#7d919b" text-anchor="middle">2021</text>
<line x1="800.0" y1="314" x2="800.0" y2="326" stroke="#7d919b" stroke-width="1.3"/>
<text x="800.0" y="342" font-size="10.5" fill="#7d919b" text-anchor="middle">2022</text>
<line x1="950.0" y1="314" x2="950.0" y2="326" stroke="#7d919b" stroke-width="1.3"/>
<text x="950.0" y="342" font-size="10.5" fill="#7d919b" text-anchor="middle">2023</text>
<line x1="1150.0" y1="314" x2="1150.0" y2="326" stroke="#7d919b" stroke-width="1.3"/>
<text x="1150.0" y="342" font-size="10.5" fill="#7d919b" text-anchor="middle">2024</text>
<line x1="1400.0" y1="314" x2="1400.0" y2="326" stroke="#7d919b" stroke-width="1.3"/>
<text x="1400.0" y="342" font-size="10.5" fill="#7d919b" text-anchor="middle">2025</text>
<rect x="32.0" y="250.0" width="176.0" height="42.0" rx="6" fill="#141d21" stroke="#2dd4bf" stroke-width="1.4"/>
<text x="120.0" y="266.0" font-size="11.5" fill="#e6edf0" text-anchor="middle" font-weight="600">Williams 1992</text>
<text x="120.0" y="280.0" font-size="9.5" fill="#7d919b" text-anchor="middle">REINFORCE</text>
<circle cx="120.0" cy="320.0" r="5" fill="#2dd4bf" stroke="#06211d" stroke-width="1.2"/>
<line x1="120.0" y1="292.0" x2="120.0" y2="320.0" stroke="#2dd4bf" stroke-width="1.1" stroke-dasharray="2,2"/>
<rect x="102.0" y="192.0" width="176.0" height="42.0" rx="6" fill="#141d21" stroke="#2dd4bf" stroke-width="1.4"/>
<text x="190.0" y="208.0" font-size="11.5" fill="#e6edf0" text-anchor="middle" font-weight="600">Sutton et al. 1999</text>
<text x="190.0" y="222.0" font-size="9.5" fill="#7d919b" text-anchor="middle">policy gradient theorem</text>
<circle cx="190.0" cy="320.0" r="5" fill="#2dd4bf" stroke="#06211d" stroke-width="1.2"/>
<line x1="190.0" y1="234.0" x2="190.0" y2="320.0" stroke="#2dd4bf" stroke-width="1.1" stroke-dasharray="2,2"/>
<rect x="212.0" y="134.0" width="176.0" height="42.0" rx="6" fill="#141d21" stroke="#2dd4bf" stroke-width="1.4"/>
<text x="300.0" y="150.0" font-size="11.5" fill="#e6edf0" text-anchor="middle" font-weight="600">Knox &amp; Stone 2009</text>
<text x="300.0" y="164.0" font-size="9.5" fill="#7d919b" text-anchor="middle">TAMER</text>
<circle cx="300.0" cy="320.0" r="5" fill="#2dd4bf" stroke="#06211d" stroke-width="1.2"/>
<line x1="300.0" y1="176.0" x2="300.0" y2="320.0" stroke="#2dd4bf" stroke-width="1.1" stroke-dasharray="2,2"/>
<rect x="342.0" y="250.0" width="176.0" height="42.0" rx="6" fill="#141d21" stroke="#2dd4bf" stroke-width="1.4"/>
<text x="430.0" y="266.0" font-size="11.5" fill="#e6edf0" text-anchor="middle" font-weight="600">Schulman et al. 2015</text>
<text x="430.0" y="280.0" font-size="9.5" fill="#7d919b" text-anchor="middle">GAE</text>
<circle cx="430.0" cy="320.0" r="5" fill="#2dd4bf" stroke="#06211d" stroke-width="1.2"/>
<line x1="430.0" y1="292.0" x2="430.0" y2="320.0" stroke="#2dd4bf" stroke-width="1.1" stroke-dasharray="2,2"/>
<rect x="432.0" y="192.0" width="176.0" height="42.0" rx="6" fill="#141d21" stroke="#2dd4bf" stroke-width="1.4"/>
<text x="520.0" y="208.0" font-size="11.5" fill="#e6edf0" text-anchor="middle" font-weight="600">Schulman et al. 2017</text>
<text x="520.0" y="222.0" font-size="9.5" fill="#7d919b" text-anchor="middle">PPO</text>
<circle cx="520.0" cy="320.0" r="5" fill="#2dd4bf" stroke="#06211d" stroke-width="1.2"/>
<line x1="520.0" y1="234.0" x2="520.0" y2="320.0" stroke="#2dd4bf" stroke-width="1.1" stroke-dasharray="2,2"/>
<rect x="445.5" y="134.0" width="176.0" height="42.0" rx="6" fill="#141d21" stroke="#2dd4bf" stroke-width="1.4"/>
<text x="533.5" y="150.0" font-size="11.5" fill="#e6edf0" text-anchor="middle" font-weight="600">Christiano et al. 2017</text>
<text x="533.5" y="164.0" font-size="9.5" fill="#7d919b" text-anchor="middle">Deep RL from Human Prefs</text>
<circle cx="533.5" cy="320.0" r="5" fill="#2dd4bf" stroke="#06211d" stroke-width="1.2"/>
<line x1="533.5" y1="176.0" x2="533.5" y2="320.0" stroke="#2dd4bf" stroke-width="1.1" stroke-dasharray="2,2"/>
<rect x="459.0" y="76.0" width="176.0" height="42.0" rx="6" fill="#141d21" stroke="#2dd4bf" stroke-width="1.4"/>
<text x="547.0" y="92.0" font-size="11.5" fill="#e6edf0" text-anchor="middle" font-weight="600">MacGlashan et al. 2017</text>
<text x="547.0" y="106.0" font-size="9.5" fill="#7d919b" text-anchor="middle">COACH critiques TAMER</text>
<circle cx="547.0" cy="320.0" r="5" fill="#2dd4bf" stroke="#06211d" stroke-width="1.2"/>
<line x1="547.0" y1="118.0" x2="547.0" y2="320.0" stroke="#2dd4bf" stroke-width="1.1" stroke-dasharray="2,2"/>
<rect x="522.0" y="18.0" width="176.0" height="42.0" rx="6" fill="#141d21" stroke="#2dd4bf" stroke-width="1.4"/>
<text x="610.0" y="34.0" font-size="11.5" fill="#e6edf0" text-anchor="middle" font-weight="600">Ziegler et al. 2019</text>
<text x="610.0" y="48.0" font-size="9.5" fill="#7d919b" text-anchor="middle">fine-tune LM from prefs</text>
<circle cx="610.0" cy="320.0" r="5" fill="#2dd4bf" stroke="#06211d" stroke-width="1.2"/>
<line x1="610.0" y1="60.0" x2="610.0" y2="320.0" stroke="#2dd4bf" stroke-width="1.1" stroke-dasharray="2,2"/>
<rect x="582.0" y="250.0" width="176.0" height="42.0" rx="6" fill="#141d21" stroke="#2dd4bf" stroke-width="1.4"/>
<text x="670.0" y="266.0" font-size="11.5" fill="#e6edf0" text-anchor="middle" font-weight="600">Stiennon et al. 2020</text>
<text x="670.0" y="280.0" font-size="9.5" fill="#7d919b" text-anchor="middle">learning to summarize</text>
<circle cx="670.0" cy="320.0" r="5" fill="#2dd4bf" stroke="#06211d" stroke-width="1.2"/>
<line x1="670.0" y1="292.0" x2="670.0" y2="320.0" stroke="#2dd4bf" stroke-width="1.1" stroke-dasharray="2,2"/>
<rect x="712.0" y="192.0" width="176.0" height="42.0" rx="6" fill="#141d21" stroke="#2dd4bf" stroke-width="1.4"/>
<text x="800.0" y="208.0" font-size="11.5" fill="#e6edf0" text-anchor="middle" font-weight="600">Ouyang et al. 2022</text>
<text x="800.0" y="222.0" font-size="9.5" fill="#7d919b" text-anchor="middle">InstructGPT</text>
<circle cx="800.0" cy="320.0" r="5" fill="#2dd4bf" stroke="#06211d" stroke-width="1.2"/>
<line x1="800.0" y1="234.0" x2="800.0" y2="320.0" stroke="#2dd4bf" stroke-width="1.1" stroke-dasharray="2,2"/>
<rect x="787.0" y="250.0" width="176.0" height="42.0" rx="6" fill="#141d21" stroke="#2dd4bf" stroke-width="1.4"/>
<text x="875.0" y="266.0" font-size="11.5" fill="#e6edf0" text-anchor="middle" font-weight="600">Bai et al. 2022</text>
<text x="875.0" y="280.0" font-size="9.5" fill="#7d919b" text-anchor="middle">HH-RLHF / Constitutional AI</text>
<circle cx="875.0" cy="320.0" r="5" fill="#2dd4bf" stroke="#06211d" stroke-width="1.2"/>
<line x1="875.0" y1="292.0" x2="875.0" y2="320.0" stroke="#2dd4bf" stroke-width="1.1" stroke-dasharray="2,2"/>
<rect x="854.0" y="134.0" width="192.0" height="56.0" rx="6" fill="#141d21" stroke="#a78bfa" stroke-width="1.4"/>
<text x="950.0" y="150.0" font-size="11.5" fill="#e6edf0" text-anchor="middle" font-weight="600">Rafailov et al. 2023</text>
<text x="950.0" y="164.0" font-size="9.5" fill="#7d919b" text-anchor="middle">DPO breaks from the</text>
<text x="950.0" y="178.0" font-size="9.5" fill="#7d919b" text-anchor="middle">actor-critic pipeline</text>
<circle cx="950.0" cy="320.0" r="7" fill="#a78bfa" stroke="#06211d" stroke-width="1.2"/>
<line x1="950.0" y1="190.0" x2="950.0" y2="320.0" stroke="#a78bfa" stroke-width="1.3" stroke-dasharray="2,2"/>
<rect x="992.0" y="250.0" width="176.0" height="42.0" rx="6" fill="#141d21" stroke="#34d399" stroke-width="1.4"/>
<text x="1080.0" y="266.0" font-size="11.5" fill="#e6edf0" text-anchor="middle" font-weight="600">Lambert et al. 2024</text>
<text x="1080.0" y="280.0" font-size="9.5" fill="#7d919b" text-anchor="middle">Tulu 3 coins “RLVR”</text>
<circle cx="1080.0" cy="320.0" r="5" fill="#34d399" stroke="#06211d" stroke-width="1.2"/>
<line x1="1080.0" y1="292.0" x2="1080.0" y2="320.0" stroke="#34d399" stroke-width="1.1" stroke-dasharray="2,2"/>
<rect x="1054.0" y="192.0" width="192.0" height="56.0" rx="6" fill="#141d21" stroke="#34d399" stroke-width="1.4"/>
<text x="1150.0" y="208.0" font-size="11.5" fill="#e6edf0" text-anchor="middle" font-weight="600">Shao et al. 2024</text>
<text x="1150.0" y="222.0" font-size="9.5" fill="#7d919b" text-anchor="middle">DeepSeekMath / GRPO</text>
<text x="1150.0" y="236.0" font-size="9.5" fill="#7d919b" text-anchor="middle">critic-free RL</text>
<circle cx="1150.0" cy="320.0" r="7" fill="#34d399" stroke="#06211d" stroke-width="1.2"/>
<line x1="1150.0" y1="248.0" x2="1150.0" y2="320.0" stroke="#34d399" stroke-width="1.3" stroke-dasharray="2,2"/>
<rect x="1129.0" y="134.0" width="192.0" height="56.0" rx="6" fill="#141d21" stroke="#7d919b" stroke-width="1.4"/>
<text x="1225.0" y="150.0" font-size="11.5" fill="#e6edf0" text-anchor="middle" font-weight="600">OpenAI 2024</text>
<text x="1225.0" y="164.0" font-size="9.5" fill="#7d919b" text-anchor="middle">o1 system card</text>
<text x="1225.0" y="178.0" font-size="9.5" fill="#7d919b" text-anchor="middle">(the gap R1 answers)</text>
<circle cx="1225.0" cy="320.0" r="5" fill="#7d919b" stroke="#06211d" stroke-width="1.2"/>
<line x1="1225.0" y1="190.0" x2="1225.0" y2="320.0" stroke="#7d919b" stroke-width="1.1" stroke-dasharray="2,2"/>
<rect x="1304.0" y="250.0" width="192.0" height="56.0" rx="6" fill="#123a34" stroke="#2dd4bf" stroke-width="1.4"/>
<text x="1400.0" y="266.0" font-size="11.5" fill="#e6edf0" text-anchor="middle" font-weight="600">DeepSeek-AI 2025</text>
<text x="1400.0" y="280.0" font-size="9.5" fill="#7d919b" text-anchor="middle">DeepSeek-R1</text>
<text x="1400.0" y="294.0" font-size="9.5" fill="#7d919b" text-anchor="middle">RLVR crystallizes</text>
<circle cx="1400.0" cy="320.0" r="9" fill="#2dd4bf" stroke="#06211d" stroke-width="1.2"/>
<line x1="1400.0" y1="306.0" x2="1400.0" y2="320.0" stroke="#2dd4bf" stroke-width="1.3" stroke-dasharray="2,2"/>
<text x="80" y="370" font-size="11" fill="#fb923c" font-style="italic">parallel threads (run throughout, not sequential eras)</text>
<circle cx="475.0" cy="320.0" r="4.5" fill="#fb923c" stroke="#06211d" stroke-width="1.2"/>
<line x1="475.0" y1="320.0" x2="475.0" y2="380.0" stroke="#fb923c" stroke-width="1.1" stroke-dasharray="2,2"/>
<rect x="384.0" y="380.0" width="182.0" height="42.0" rx="6" fill="#141d21" stroke="#fb923c" stroke-width="1.4"/>
<text x="475.0" y="396.0" font-size="11.5" fill="#e6edf0" text-anchor="middle" font-weight="600">Amodei et al. 2016</text>
<text x="475.0" y="410.0" font-size="9.5" fill="#7d919b" text-anchor="middle">names “reward hacking”</text>
<circle cx="800.0" cy="320.0" r="4.5" fill="#34d399" stroke="#06211d" stroke-width="1.2"/>
<line x1="800.0" y1="320.0" x2="800.0" y2="380.0" stroke="#34d399" stroke-width="1.1" stroke-dasharray="2,2"/>
<rect x="709.0" y="380.0" width="182.0" height="42.0" rx="6" fill="#141d21" stroke="#34d399" stroke-width="1.4"/>
<text x="800.0" y="396.0" font-size="11.5" fill="#e6edf0" text-anchor="middle" font-weight="600">Zelikman et al. 2022</text>
<text x="800.0" y="410.0" font-size="9.5" fill="#7d919b" text-anchor="middle">STaR bootstrap</text>
<circle cx="890.0" cy="320.0" r="4.5" fill="#fb923c" stroke="#06211d" stroke-width="1.2"/>
<line x1="890.0" y1="320.0" x2="890.0" y2="438.0" stroke="#fb923c" stroke-width="1.1" stroke-dasharray="2,2"/>
<rect x="799.0" y="438.0" width="182.0" height="42.0" rx="6" fill="#141d21" stroke="#fb923c" stroke-width="1.4"/>
<text x="890.0" y="454.0" font-size="11.5" fill="#e6edf0" text-anchor="middle" font-weight="600">Gao et al. 2022</text>
<text x="890.0" y="468.0" font-size="9.5" fill="#7d919b" text-anchor="middle">reward-overopt. scaling laws</text>
<circle cx="950.0" cy="320.0" r="4.5" fill="#34d399" stroke="#06211d" stroke-width="1.2"/>
<line x1="950.0" y1="320.0" x2="950.0" y2="496.0" stroke="#34d399" stroke-width="1.1" stroke-dasharray="2,2"/>
<rect x="859.0" y="496.0" width="182.0" height="42.0" rx="6" fill="#141d21" stroke="#34d399" stroke-width="1.4"/>
<text x="950.0" y="512.0" font-size="11.5" fill="#e6edf0" text-anchor="middle" font-weight="600">Gulcehre et al. 2023</text>
<text x="950.0" y="526.0" font-size="9.5" fill="#7d919b" text-anchor="middle">ReST</text>
<circle cx="1010.0" cy="320.0" r="4.5" fill="#34d399" stroke="#06211d" stroke-width="1.2"/>
<line x1="1010.0" y1="320.0" x2="1010.0" y2="380.0" stroke="#34d399" stroke-width="1.1" stroke-dasharray="2,2"/>
<rect x="919.0" y="380.0" width="182.0" height="42.0" rx="6" fill="#141d21" stroke="#34d399" stroke-width="1.4"/>
<text x="1010.0" y="396.0" font-size="11.5" fill="#e6edf0" text-anchor="middle" font-weight="600">Lightman et al. 2023</text>
<text x="1010.0" y="410.0" font-size="9.5" fill="#7d919b" text-anchor="middle">process reward (PRM)</text>
<circle cx="1070.0" cy="320.0" r="4.5" fill="#fb923c" stroke="#06211d" stroke-width="1.2"/>
<line x1="1070.0" y1="320.0" x2="1070.0" y2="554.0" stroke="#fb923c" stroke-width="1.1" stroke-dasharray="2,2"/>
<rect x="979.0" y="554.0" width="182.0" height="42.0" rx="6" fill="#141d21" stroke="#fb923c" stroke-width="1.4"/>
<text x="1070.0" y="570.0" font-size="11.5" fill="#e6edf0" text-anchor="middle" font-weight="600">Casper et al. 2023</text>
<text x="1070.0" y="584.0" font-size="9.5" fill="#7d919b" text-anchor="middle">Open Problems in RLHF</text>
<text x="80" y="630.0" font-size="10.5" fill="#7d919b">RLHF/reward-model lineage (teal)   |   reward-hacking critique (orange)   |   self-training/RLVR-bootstrap precursor (green)</text>
<line x1="80" y1="648.0" x2="1490" y2="648.0" stroke="#2a3a40" stroke-width="1"/>
<text x="80" y="666.0" font-size="13" fill="#e6edf0" font-weight="600">2023–2025: four branches proliferate from the same actor-critic RLHF root</text>
<text x="80" y="700.0" font-size="11.5" fill="#a78bfa" font-weight="600">Offline direct preference optimization</text>
<line x1="80.0" y1="716.0" x2="1470.0" y2="716.0" stroke="#a78bfa" stroke-width="1.1" stroke-dasharray="3,3"/>
<path d="M 950.0 326.0 C 950.0 521.0, 950.0 521.0, 950.0 716.0" fill="none" stroke="#a78bfa" stroke-width="1.3" stroke-dasharray="2,2"/>
<text x="80" y="796.0" font-size="11.5" fill="#34d399" font-weight="600">Critic-free RL &amp; RLVR reasoning (post-R1 stabilization)</text>
<line x1="80.0" y1="812.0" x2="1470.0" y2="812.0" stroke="#34d399" stroke-width="1.1" stroke-dasharray="3,3"/>
<path d="M 1400.0 326.0 C 1400.0 569.0, 1400.0 569.0, 1400.0 812.0" fill="none" stroke="#34d399" stroke-width="1.3" stroke-dasharray="2,2"/>
<text x="80" y="892.0" font-size="11.5" fill="#fbbf24" font-weight="600">Agentic multi-turn RL</text>
<line x1="80.0" y1="908.0" x2="1470.0" y2="908.0" stroke="#fbbf24" stroke-width="1.1" stroke-dasharray="3,3"/>
<path d="M 1150.0 326.0 C 1150.0 617.0, 1150.0 617.0, 1150.0 908.0" fill="none" stroke="#fbbf24" stroke-width="1.3" stroke-dasharray="2,2"/>
<text x="80" y="988.0" font-size="11.5" fill="#60a5fa" font-weight="600">Systems &amp; infrastructure (parallel thread, not a branch of R1)</text>
<line x1="80.0" y1="1004.0" x2="1470.0" y2="1004.0" stroke="#60a5fa" stroke-width="1.1" stroke-dasharray="3,3"/>
<path d="M 950.0 326.0 C 950.0 665.0, 950.0 665.0, 950.0 1004.0" fill="none" stroke="#60a5fa" stroke-width="1.3" stroke-dasharray="2,2"/>
<circle cx="430.0" cy="716.0" r="5" fill="#a78bfa" stroke="#06211d" stroke-width="1.2"/>
<rect x="323.0" y="730.0" width="214.0" height="42.0" rx="6" fill="#141d21" stroke="#a78bfa" stroke-width="1.4"/>
<text x="430.0" y="746.0" font-size="11.5" fill="#e6edf0" text-anchor="middle" font-weight="600">Ethayarajh 2024 / Meng 2024</text>
<text x="430.0" y="760.0" font-size="9.5" fill="#7d919b" text-anchor="middle">KTO, SimPO</text>
<circle cx="900.0" cy="716.0" r="5" fill="#a78bfa" stroke="#06211d" stroke-width="1.2"/>
<rect x="793.0" y="730.0" width="214.0" height="42.0" rx="6" fill="#141d21" stroke="#a78bfa" stroke-width="1.4"/>
<text x="900.0" y="746.0" font-size="11.5" fill="#e6edf0" text-anchor="middle" font-weight="600">Shi et al. 2025</text>
<text x="900.0" y="760.0" font-size="9.5" fill="#7d919b" text-anchor="middle">RLHF/DPO dichotomy</text>
<circle cx="1370.0" cy="716.0" r="5" fill="#a78bfa" stroke="#06211d" stroke-width="1.2"/>
<rect x="1263.0" y="730.0" width="214.0" height="42.0" rx="6" fill="#141d21" stroke="#a78bfa" stroke-width="1.4"/>
<text x="1370.0" y="746.0" font-size="11.5" fill="#e6edf0" text-anchor="middle" font-weight="600">+ IPO, ORPO, WPO, SPPO,</text>
<text x="1370.0" y="760.0" font-size="9.5" fill="#7d919b" text-anchor="middle">TDPO, GPO… (20 papers)</text>
<circle cx="430.0" cy="812.0" r="5" fill="#34d399" stroke="#06211d" stroke-width="1.2"/>
<rect x="323.0" y="826.0" width="214.0" height="42.0" rx="6" fill="#141d21" stroke="#34d399" stroke-width="1.4"/>
<text x="430.0" y="842.0" font-size="11.5" fill="#e6edf0" text-anchor="middle" font-weight="600">Yu et al. 2025</text>
<text x="430.0" y="856.0" font-size="9.5" fill="#7d919b" text-anchor="middle">DAPO</text>
<circle cx="900.0" cy="812.0" r="5" fill="#34d399" stroke="#06211d" stroke-width="1.2"/>
<rect x="793.0" y="826.0" width="214.0" height="42.0" rx="6" fill="#141d21" stroke="#34d399" stroke-width="1.4"/>
<text x="900.0" y="842.0" font-size="11.5" fill="#e6edf0" text-anchor="middle" font-weight="600">Zheng et al. 2025</text>
<text x="900.0" y="856.0" font-size="9.5" fill="#7d919b" text-anchor="middle">GSPO</text>
<circle cx="1370.0" cy="812.0" r="5" fill="#34d399" stroke="#06211d" stroke-width="1.2"/>
<rect x="1263.0" y="826.0" width="214.0" height="42.0" rx="6" fill="#141d21" stroke="#34d399" stroke-width="1.4"/>
<text x="1370.0" y="842.0" font-size="11.5" fill="#e6edf0" text-anchor="middle" font-weight="600">Liu 2025 / Zhao 2025</text>
<text x="1370.0" y="856.0" font-size="9.5" fill="#7d919b" text-anchor="middle">Dr. GRPO, Absolute Zero</text>
<circle cx="430.0" cy="908.0" r="5" fill="#fbbf24" stroke="#06211d" stroke-width="1.2"/>
<rect x="323.0" y="922.0" width="214.0" height="42.0" rx="6" fill="#141d21" stroke="#fbbf24" stroke-width="1.4"/>
<text x="430.0" y="938.0" font-size="11.5" fill="#e6edf0" text-anchor="middle" font-weight="600">Zhou et al. 2024</text>
<text x="430.0" y="952.0" font-size="9.5" fill="#7d919b" text-anchor="middle">ArCHer</text>
<circle cx="900.0" cy="908.0" r="5" fill="#fbbf24" stroke="#06211d" stroke-width="1.2"/>
<rect x="793.0" y="922.0" width="214.0" height="42.0" rx="6" fill="#141d21" stroke="#fbbf24" stroke-width="1.4"/>
<text x="900.0" y="938.0" font-size="11.5" fill="#e6edf0" text-anchor="middle" font-weight="600">Wang 2025 / Feng 2025</text>
<text x="900.0" y="952.0" font-size="9.5" fill="#7d919b" text-anchor="middle">RAGEN, GiGPO</text>
<circle cx="1370.0" cy="908.0" r="5" fill="#fbbf24" stroke="#06211d" stroke-width="1.2"/>
<rect x="1263.0" y="922.0" width="214.0" height="42.0" rx="6" fill="#141d21" stroke="#fbbf24" stroke-width="1.4"/>
<text x="1370.0" y="938.0" font-size="11.5" fill="#e6edf0" text-anchor="middle" font-weight="600">Wei / Jin / Xi 2025</text>
<text x="1370.0" y="952.0" font-size="9.5" fill="#7d919b" text-anchor="middle">SWE-RL, Search-R1, AgentGym-RL</text>
<circle cx="430.0" cy="1004.0" r="5" fill="#60a5fa" stroke="#06211d" stroke-width="1.2"/>
<rect x="323.0" y="1018.0" width="214.0" height="42.0" rx="6" fill="#141d21" stroke="#60a5fa" stroke-width="1.4"/>
<text x="430.0" y="1034.0" font-size="11.5" fill="#e6edf0" text-anchor="middle" font-weight="600">Yao et al. 2023</text>
<text x="430.0" y="1048.0" font-size="9.5" fill="#7d919b" text-anchor="middle">DeepSpeed-Chat</text>
<circle cx="900.0" cy="1004.0" r="5" fill="#60a5fa" stroke="#06211d" stroke-width="1.2"/>
<rect x="793.0" y="1018.0" width="214.0" height="42.0" rx="6" fill="#141d21" stroke="#60a5fa" stroke-width="1.4"/>
<text x="900.0" y="1034.0" font-size="11.5" fill="#e6edf0" text-anchor="middle" font-weight="600">Hu 2024 / Sheng 2024</text>
<text x="900.0" y="1048.0" font-size="9.5" fill="#7d919b" text-anchor="middle">OpenRLHF, verl</text>
<circle cx="1370.0" cy="1004.0" r="5" fill="#60a5fa" stroke="#06211d" stroke-width="1.2"/>
<rect x="1263.0" y="1018.0" width="214.0" height="42.0" rx="6" fill="#141d21" stroke="#60a5fa" stroke-width="1.4"/>
<text x="1370.0" y="1034.0" font-size="11.5" fill="#e6edf0" text-anchor="middle" font-weight="600">Fu / Zhong / Wu 2025</text>
<text x="1370.0" y="1048.0" font-size="9.5" fill="#7d919b" text-anchor="middle">AReaL, StreamRL, LlamaRL</text>
</svg>