<svg viewBox="0 0 1560 1164" xmlns="http://www.w3.org/2000/svg" font-family="Inter, ui-sans-serif, system-ui, sans-serif">
<rect x="0" y="0" width="1560" height="1164" fill="#0a0e0f"/>
<text x="780.0" y="34" font-size="19" fill="#e6edf0" text-anchor="middle" font-weight="700">Timeline of RL for LLMs: from RLHF foundations to the DPO / RLVR / agentic-RL branch points</text>
<text x="780.0" y="56" font-size="12" fill="#7d919b" text-anchor="middle">axis compressed before 2015 to give 2022&#8211;2025 branching room to breathe &#8212; corpus: 141 papers, 1992&#8211;2025</text>
<rect x="80" y="76" width="440" height="326" fill="#12242a" fill-opacity="0.55" rx="4"/>
<text x="300.0" y="94" font-size="11.5" fill="#7d919b" text-anchor="middle" font-style="italic">Pre-LLM foundations (1992–2017)</text>
<rect x="520" y="76" width="430" height="326" fill="#141d21" fill-opacity="0.55" rx="4"/>
<text x="735.0" y="94" font-size="11.5" fill="#7d919b" text-anchor="middle" font-style="italic">RLHF pipeline crystallizes (2017–2022)</text>
<rect x="950" y="76" width="540" height="326" fill="#181422" fill-opacity="0.55" rx="4"/>
<text x="1220.0" y="94" font-size="11.5" fill="#7d919b" text-anchor="middle" font-style="italic">DPO / RLVR / agentic branch (2022–2025)</text>
<line x1="80.0" y1="410.0" x2="1490.0" y2="410.0" stroke="#2a3a40" stroke-width="2"/>
<line x1="120.0" y1="404" x2="120.0" y2="416" stroke="#7d919b" stroke-width="1.3"/>
<text x="120.0" y="432" font-size="10.5" fill="#7d919b" text-anchor="middle">1992</text>
<line x1="190.0" y1="404" x2="190.0" y2="416" stroke="#7d919b" stroke-width="1.3"/>
<text x="190.0" y="432" font-size="10.5" fill="#7d919b" text-anchor="middle">1999</text>
<line x1="300.0" y1="404" x2="300.0" y2="416" stroke="#7d919b" stroke-width="1.3"/>
<text x="300.0" y="432" font-size="10.5" fill="#7d919b" text-anchor="middle">2009</text>
<line x1="430.0" y1="404" x2="430.0" y2="416" stroke="#7d919b" stroke-width="1.3"/>
<text x="430.0" y="432" font-size="10.5" fill="#7d919b" text-anchor="middle">2015</text>
<line x1="520.0" y1="404" x2="520.0" y2="416" stroke="#7d919b" stroke-width="1.3"/>
<text x="520.0" y="432" font-size="10.5" fill="#7d919b" text-anchor="middle">2017</text>
<line x1="610.0" y1="404" x2="610.0" y2="416" stroke="#7d919b" stroke-width="1.3"/>
<text x="610.0" y="432" font-size="10.5" fill="#7d919b" text-anchor="middle">2019</text>
<line x1="670.0" y1="404" x2="670.0" y2="416" stroke="#7d919b" stroke-width="1.3"/>
<text x="670.0" y="432" font-size="10.5" fill="#7d919b" text-anchor="middle">2020</text>
<line x1="730.0" y1="404" x2="730.0" y2="416" stroke="#7d919b" stroke-width="1.3"/>
<text x="730.0" y="432" font-size="10.5" fill="#7d919b" text-anchor="middle">2021</text>
<line x1="800.0" y1="404" x2="800.0" y2="416" stroke="#7d919b" stroke-width="1.3"/>
<text x="800.0" y="432" font-size="10.5" fill="#7d919b" text-anchor="middle">2022</text>
<line x1="950.0" y1="404" x2="950.0" y2="416" stroke="#7d919b" stroke-width="1.3"/>
<text x="950.0" y="432" font-size="10.5" fill="#7d919b" text-anchor="middle">2023</text>
<line x1="1150.0" y1="404" x2="1150.0" y2="416" stroke="#7d919b" stroke-width="1.3"/>
<text x="1150.0" y="432" font-size="10.5" fill="#7d919b" text-anchor="middle">2024</text>
<line x1="1400.0" y1="404" x2="1400.0" y2="416" stroke="#7d919b" stroke-width="1.3"/>
<text x="1400.0" y="432" font-size="10.5" fill="#7d919b" text-anchor="middle">2025</text>
<circle cx="120.0" cy="410.0" r="5" fill="#2dd4bf" stroke="#06211d" stroke-width="1.2"/>
<line x1="120.0" y1="382.0" x2="120.0" y2="410.0" stroke="#2dd4bf" stroke-width="1.1" stroke-dasharray="2,2"/>
<circle cx="190.0" cy="410.0" r="5" fill="#2dd4bf" stroke="#06211d" stroke-width="1.2"/>
<line x1="190.0" y1="324.0" x2="190.0" y2="410.0" stroke="#2dd4bf" stroke-width="1.1" stroke-dasharray="2,2"/>
<circle cx="300.0" cy="410.0" r="5" fill="#2dd4bf" stroke="#06211d" stroke-width="1.2"/>
<line x1="300.0" y1="266.0" x2="300.0" y2="410.0" stroke="#2dd4bf" stroke-width="1.1" stroke-dasharray="2,2"/>
<circle cx="430.0" cy="410.0" r="5" fill="#2dd4bf" stroke="#06211d" stroke-width="1.2"/>
<line x1="430.0" y1="382.0" x2="430.0" y2="410.0" stroke="#2dd4bf" stroke-width="1.1" stroke-dasharray="2,2"/>
<circle cx="520.0" cy="410.0" r="5" fill="#2dd4bf" stroke="#06211d" stroke-width="1.2"/>
<line x1="520.0" y1="324.0" x2="520.0" y2="410.0" stroke="#2dd4bf" stroke-width="1.1" stroke-dasharray="2,2"/>
<circle cx="533.5" cy="410.0" r="5" fill="#2dd4bf" stroke="#06211d" stroke-width="1.2"/>
<line x1="533.5" y1="266.0" x2="533.5" y2="410.0" stroke="#2dd4bf" stroke-width="1.1" stroke-dasharray="2,2"/>
<circle cx="547.0" cy="410.0" r="5" fill="#2dd4bf" stroke="#06211d" stroke-width="1.2"/>
<line x1="547.0" y1="208.0" x2="547.0" y2="410.0" stroke="#2dd4bf" stroke-width="1.1" stroke-dasharray="2,2"/>
<circle cx="610.0" cy="410.0" r="5" fill="#2dd4bf" stroke="#06211d" stroke-width="1.2"/>
<line x1="610.0" y1="150.0" x2="610.0" y2="410.0" stroke="#2dd4bf" stroke-width="1.1" stroke-dasharray="2,2"/>
<circle cx="670.0" cy="410.0" r="5" fill="#2dd4bf" stroke="#06211d" stroke-width="1.2"/>
<line x1="670.0" y1="382.0" x2="670.0" y2="410.0" stroke="#2dd4bf" stroke-width="1.1" stroke-dasharray="2,2"/>
<circle cx="800.0" cy="410.0" r="5" fill="#2dd4bf" stroke="#06211d" stroke-width="1.2"/>
<line x1="800.0" y1="324.0" x2="800.0" y2="410.0" stroke="#2dd4bf" stroke-width="1.1" stroke-dasharray="2,2"/>
<circle cx="875.0" cy="410.0" r="5" fill="#2dd4bf" stroke="#06211d" stroke-width="1.2"/>
<line x1="875.0" y1="382.0" x2="875.0" y2="410.0" stroke="#2dd4bf" stroke-width="1.1" stroke-dasharray="2,2"/>
<circle cx="950.0" cy="410.0" r="7" fill="#a78bfa" stroke="#06211d" stroke-width="1.2"/>
<line x1="950.0" y1="280.0" x2="950.0" y2="410.0" stroke="#a78bfa" stroke-width="1.3" stroke-dasharray="2,2"/>
<circle cx="1080.0" cy="410.0" r="5" fill="#34d399" stroke="#06211d" stroke-width="1.2"/>
<line x1="1080.0" y1="382.0" x2="1080.0" y2="410.0" stroke="#34d399" stroke-width="1.1" stroke-dasharray="2,2"/>
<circle cx="1150.0" cy="410.0" r="7" fill="#34d399" stroke="#06211d" stroke-width="1.2"/>
<line x1="1150.0" y1="338.0" x2="1150.0" y2="410.0" stroke="#34d399" stroke-width="1.3" stroke-dasharray="2,2"/>
<circle cx="1225.0" cy="410.0" r="5" fill="#7d919b" stroke="#06211d" stroke-width="1.2"/>
<line x1="1225.0" y1="280.0" x2="1225.0" y2="410.0" stroke="#7d919b" stroke-width="1.1" stroke-dasharray="2,2"/>
<circle cx="1400.0" cy="410.0" r="9" fill="#2dd4bf" stroke="#06211d" stroke-width="1.2"/>
<line x1="1400.0" y1="396.0" x2="1400.0" y2="410.0" stroke="#2dd4bf" stroke-width="1.3" stroke-dasharray="2,2"/>
<rect x="32.0" y="340.0" width="176.0" height="42.0" rx="6" fill="#141d21" stroke="#2dd4bf" stroke-width="1.4"/>
<text x="120.0" y="356.0" font-size="11.5" fill="#e6edf0" text-anchor="middle" font-weight="600">Williams 1992</text>
<text x="120.0" y="370.0" font-size="9.5" fill="#7d919b" text-anchor="middle">REINFORCE</text>
<rect x="102.0" y="282.0" width="176.0" height="42.0" rx="6" fill="#141d21" stroke="#2dd4bf" stroke-width="1.4"/>
<text x="190.0" y="298.0" font-size="11.5" fill="#e6edf0" text-anchor="middle" font-weight="600">Sutton et al. 1999</text>
<text x="190.0" y="312.0" font-size="9.5" fill="#7d919b" text-anchor="middle">policy gradient theorem</text>
<rect x="212.0" y="224.0" width="176.0" height="42.0" rx="6" fill="#141d21" stroke="#2dd4bf" stroke-width="1.4"/>
<text x="300.0" y="240.0" font-size="11.5" fill="#e6edf0" text-anchor="middle" font-weight="600">Knox &amp; Stone 2009</text>
<text x="300.0" y="254.0" font-size="9.5" fill="#7d919b" text-anchor="middle">TAMER</text>
<rect x="342.0" y="340.0" width="176.0" height="42.0" rx="6" fill="#141d21" stroke="#2dd4bf" stroke-width="1.4"/>
<text x="430.0" y="356.0" font-size="11.5" fill="#e6edf0" text-anchor="middle" font-weight="600">Schulman et al. 2015</text>
<text x="430.0" y="370.0" font-size="9.5" fill="#7d919b" text-anchor="middle">GAE</text>
<rect x="432.0" y="282.0" width="176.0" height="42.0" rx="6" fill="#141d21" stroke="#2dd4bf" stroke-width="1.4"/>
<text x="520.0" y="298.0" font-size="11.5" fill="#e6edf0" text-anchor="middle" font-weight="600">Schulman et al. 2017</text>
<text x="520.0" y="312.0" font-size="9.5" fill="#7d919b" text-anchor="middle">PPO</text>
<rect x="445.5" y="224.0" width="176.0" height="42.0" rx="6" fill="#141d21" stroke="#2dd4bf" stroke-width="1.4"/>
<text x="533.5" y="240.0" font-size="11.5" fill="#e6edf0" text-anchor="middle" font-weight="600">Christiano et al. 2017</text>
<text x="533.5" y="254.0" font-size="9.5" fill="#7d919b" text-anchor="middle">Deep RL from Human Prefs</text>
<rect x="459.0" y="166.0" width="176.0" height="42.0" rx="6" fill="#141d21" stroke="#2dd4bf" stroke-width="1.4"/>
<text x="547.0" y="182.0" font-size="11.5" fill="#e6edf0" text-anchor="middle" font-weight="600">MacGlashan et al. 2017</text>
<text x="547.0" y="196.0" font-size="9.5" fill="#7d919b" text-anchor="middle">COACH critiques TAMER</text>
<rect x="522.0" y="108.0" width="176.0" height="42.0" rx="6" fill="#141d21" stroke="#2dd4bf" stroke-width="1.4"/>
<text x="610.0" y="124.0" font-size="11.5" fill="#e6edf0" text-anchor="middle" font-weight="600">Ziegler et al. 2019</text>
<text x="610.0" y="138.0" font-size="9.5" fill="#7d919b" text-anchor="middle">fine-tune LM from prefs</text>
<rect x="582.0" y="340.0" width="176.0" height="42.0" rx="6" fill="#141d21" stroke="#2dd4bf" stroke-width="1.4"/>
<text x="670.0" y="356.0" font-size="11.5" fill="#e6edf0" text-anchor="middle" font-weight="600">Stiennon et al. 2020</text>
<text x="670.0" y="370.0" font-size="9.5" fill="#7d919b" text-anchor="middle">learning to summarize</text>
<rect x="712.0" y="282.0" width="176.0" height="42.0" rx="6" fill="#141d21" stroke="#2dd4bf" stroke-width="1.4"/>
<text x="800.0" y="298.0" font-size="11.5" fill="#e6edf0" text-anchor="middle" font-weight="600">Ouyang et al. 2022</text>
<text x="800.0" y="312.0" font-size="9.5" fill="#7d919b" text-anchor="middle">InstructGPT</text>
<rect x="787.0" y="340.0" width="176.0" height="42.0" rx="6" fill="#141d21" stroke="#2dd4bf" stroke-width="1.4"/>
<text x="875.0" y="356.0" font-size="11.5" fill="#e6edf0" text-anchor="middle" font-weight="600">Bai et al. 2022</text>
<text x="875.0" y="370.0" font-size="9.5" fill="#7d919b" text-anchor="middle">HH-RLHF / Constitutional AI</text>
<rect x="854.0" y="224.0" width="192.0" height="56.0" rx="6" fill="#141d21" stroke="#a78bfa" stroke-width="1.4"/>
<text x="950.0" y="240.0" font-size="11.5" fill="#e6edf0" text-anchor="middle" font-weight="600">Rafailov et al. 2023</text>
<text x="950.0" y="254.0" font-size="9.5" fill="#7d919b" text-anchor="middle">DPO breaks from the</text>
<text x="950.0" y="268.0" font-size="9.5" fill="#7d919b" text-anchor="middle">actor-critic pipeline</text>
<rect x="992.0" y="340.0" width="176.0" height="42.0" rx="6" fill="#141d21" stroke="#34d399" stroke-width="1.4"/>
<text x="1080.0" y="356.0" font-size="11.5" fill="#e6edf0" text-anchor="middle" font-weight="600">Lambert et al. 2024</text>
<text x="1080.0" y="370.0" font-size="9.5" fill="#7d919b" text-anchor="middle">Tulu 3 coins “RLVR”</text>
<rect x="1054.0" y="282.0" width="192.0" height="56.0" rx="6" fill="#141d21" stroke="#34d399" stroke-width="1.4"/>
<text x="1150.0" y="298.0" font-size="11.5" fill="#e6edf0" text-anchor="middle" font-weight="600">Shao et al. 2024</text>
<text x="1150.0" y="312.0" font-size="9.5" fill="#7d919b" text-anchor="middle">DeepSeekMath / GRPO</text>
<text x="1150.0" y="326.0" font-size="9.5" fill="#7d919b" text-anchor="middle">critic-free RL</text>
<rect x="1129.0" y="224.0" width="192.0" height="56.0" rx="6" fill="#141d21" stroke="#7d919b" stroke-width="1.4"/>
<text x="1225.0" y="240.0" font-size="11.5" fill="#e6edf0" text-anchor="middle" font-weight="600">OpenAI 2024</text>
<text x="1225.0" y="254.0" font-size="9.5" fill="#7d919b" text-anchor="middle">o1 system card</text>
<text x="1225.0" y="268.0" font-size="9.5" fill="#7d919b" text-anchor="middle">(the gap R1 answers)</text>
<rect x="1304.0" y="340.0" width="192.0" height="56.0" rx="6" fill="#123a34" stroke="#2dd4bf" stroke-width="1.4"/>
<text x="1400.0" y="356.0" font-size="11.5" fill="#e6edf0" text-anchor="middle" font-weight="600">DeepSeek-AI 2025</text>
<text x="1400.0" y="370.0" font-size="9.5" fill="#7d919b" text-anchor="middle">DeepSeek-R1</text>
<text x="1400.0" y="384.0" font-size="9.5" fill="#7d919b" text-anchor="middle">RLVR crystallizes</text>
<text x="80" y="460" font-size="11" fill="#fb923c" font-style="italic">parallel threads (run throughout, not sequential eras)</text>
<circle cx="475.0" cy="410.0" r="4.5" fill="#fb923c" stroke="#06211d" stroke-width="1.2"/>
<line x1="475.0" y1="410.0" x2="475.0" y2="470.0" stroke="#fb923c" stroke-width="1.1" stroke-dasharray="2,2"/>
<circle cx="800.0" cy="410.0" r="4.5" fill="#34d399" stroke="#06211d" stroke-width="1.2"/>
<line x1="800.0" y1="410.0" x2="800.0" y2="470.0" stroke="#34d399" stroke-width="1.1" stroke-dasharray="2,2"/>
<circle cx="890.0" cy="410.0" r="4.5" fill="#fb923c" stroke="#06211d" stroke-width="1.2"/>
<line x1="890.0" y1="410.0" x2="890.0" y2="528.0" stroke="#fb923c" stroke-width="1.1" stroke-dasharray="2,2"/>
<circle cx="950.0" cy="410.0" r="4.5" fill="#34d399" stroke="#06211d" stroke-width="1.2"/>
<line x1="950.0" y1="410.0" x2="950.0" y2="586.0" stroke="#34d399" stroke-width="1.1" stroke-dasharray="2,2"/>
<circle cx="1010.0" cy="410.0" r="4.5" fill="#34d399" stroke="#06211d" stroke-width="1.2"/>
<line x1="1010.0" y1="410.0" x2="1010.0" y2="470.0" stroke="#34d399" stroke-width="1.1" stroke-dasharray="2,2"/>
<circle cx="1070.0" cy="410.0" r="4.5" fill="#fb923c" stroke="#06211d" stroke-width="1.2"/>
<line x1="1070.0" y1="410.0" x2="1070.0" y2="644.0" stroke="#fb923c" stroke-width="1.1" stroke-dasharray="2,2"/>
<rect x="384.0" y="470.0" width="182.0" height="42.0" rx="6" fill="#141d21" stroke="#fb923c" stroke-width="1.4"/>
<text x="475.0" y="486.0" font-size="11.5" fill="#e6edf0" text-anchor="middle" font-weight="600">Amodei et al. 2016</text>
<text x="475.0" y="500.0" font-size="9.5" fill="#7d919b" text-anchor="middle">names “reward hacking”</text>
<rect x="709.0" y="470.0" width="182.0" height="42.0" rx="6" fill="#141d21" stroke="#34d399" stroke-width="1.4"/>
<text x="800.0" y="486.0" font-size="11.5" fill="#e6edf0" text-anchor="middle" font-weight="600">Zelikman et al. 2022</text>
<text x="800.0" y="500.0" font-size="9.5" fill="#7d919b" text-anchor="middle">STaR bootstrap</text>
<rect x="799.0" y="528.0" width="182.0" height="42.0" rx="6" fill="#141d21" stroke="#fb923c" stroke-width="1.4"/>
<text x="890.0" y="544.0" font-size="11.5" fill="#e6edf0" text-anchor="middle" font-weight="600">Gao et al. 2022</text>
<text x="890.0" y="558.0" font-size="9.5" fill="#7d919b" text-anchor="middle">reward-overopt. scaling laws</text>
<rect x="859.0" y="586.0" width="182.0" height="42.0" rx="6" fill="#141d21" stroke="#34d399" stroke-width="1.4"/>
<text x="950.0" y="602.0" font-size="11.5" fill="#e6edf0" text-anchor="middle" font-weight="600">Gulcehre et al. 2023</text>
<text x="950.0" y="616.0" font-size="9.5" fill="#7d919b" text-anchor="middle">ReST</text>
<rect x="919.0" y="470.0" width="182.0" height="42.0" rx="6" fill="#141d21" stroke="#34d399" stroke-width="1.4"/>
<text x="1010.0" y="486.0" font-size="11.5" fill="#e6edf0" text-anchor="middle" font-weight="600">Lightman et al. 2023</text>
<text x="1010.0" y="500.0" font-size="9.5" fill="#7d919b" text-anchor="middle">process reward (PRM)</text>
<rect x="979.0" y="644.0" width="182.0" height="42.0" rx="6" fill="#141d21" stroke="#fb923c" stroke-width="1.4"/>
<text x="1070.0" y="660.0" font-size="11.5" fill="#e6edf0" text-anchor="middle" font-weight="600">Casper et al. 2023</text>
<text x="1070.0" y="674.0" font-size="9.5" fill="#7d919b" text-anchor="middle">Open Problems in RLHF</text>
<text x="80" y="720.0" font-size="10.5" fill="#7d919b">RLHF/reward-model lineage (teal)   |   reward-hacking critique (orange)   |   self-training/RLVR-bootstrap precursor (green)</text>
<line x1="80" y1="738.0" x2="1490" y2="738.0" stroke="#2a3a40" stroke-width="1"/>
<text x="80" y="756.0" font-size="13" fill="#e6edf0" font-weight="600">2023–2025: four branches proliferate from the same actor-critic RLHF root</text>
<text x="80" y="790.0" font-size="11.5" fill="#a78bfa" font-weight="600">Offline direct preference optimization</text>
<line x1="80.0" y1="806.0" x2="1470.0" y2="806.0" stroke="#a78bfa" stroke-width="1.1" stroke-dasharray="3,3"/>
<circle cx="72.0" cy="806.0" r="4" fill="#a78bfa" stroke="#06211d" stroke-width="1.2"/>
<text x="80" y="886.0" font-size="11.5" fill="#34d399" font-weight="600">Critic-free RL &amp; RLVR reasoning (post-R1 stabilization)</text>
<line x1="80.0" y1="902.0" x2="1470.0" y2="902.0" stroke="#34d399" stroke-width="1.1" stroke-dasharray="3,3"/>
<circle cx="72.0" cy="902.0" r="4" fill="#34d399" stroke="#06211d" stroke-width="1.2"/>
<text x="80" y="982.0" font-size="11.5" fill="#fbbf24" font-weight="600">Agentic multi-turn RL</text>
<line x1="80.0" y1="998.0" x2="1470.0" y2="998.0" stroke="#fbbf24" stroke-width="1.1" stroke-dasharray="3,3"/>
<circle cx="72.0" cy="998.0" r="4" fill="#fbbf24" stroke="#06211d" stroke-width="1.2"/>
<text x="80" y="1078.0" font-size="11.5" fill="#60a5fa" font-weight="600">Systems &amp; infrastructure (parallel thread, not a branch of R1)</text>
<line x1="80.0" y1="1094.0" x2="1470.0" y2="1094.0" stroke="#60a5fa" stroke-width="1.1" stroke-dasharray="3,3"/>
<circle cx="72.0" cy="1094.0" r="4" fill="#60a5fa" stroke="#06211d" stroke-width="1.2"/>
<circle cx="430.0" cy="806.0" r="5" fill="#a78bfa" stroke="#06211d" stroke-width="1.2"/>
<rect x="323.0" y="820.0" width="214.0" height="42.0" rx="6" fill="#141d21" stroke="#a78bfa" stroke-width="1.4"/>
<text x="430.0" y="836.0" font-size="11.5" fill="#e6edf0" text-anchor="middle" font-weight="600">Ethayarajh 2024 / Meng 2024</text>
<text x="430.0" y="850.0" font-size="9.5" fill="#7d919b" text-anchor="middle">KTO, SimPO</text>
<circle cx="900.0" cy="806.0" r="5" fill="#a78bfa" stroke="#06211d" stroke-width="1.2"/>
<rect x="793.0" y="820.0" width="214.0" height="42.0" rx="6" fill="#141d21" stroke="#a78bfa" stroke-width="1.4"/>
<text x="900.0" y="836.0" font-size="11.5" fill="#e6edf0" text-anchor="middle" font-weight="600">Shi et al. 2025</text>
<text x="900.0" y="850.0" font-size="9.5" fill="#7d919b" text-anchor="middle">RLHF/DPO dichotomy</text>
<circle cx="1370.0" cy="806.0" r="5" fill="#a78bfa" stroke="#06211d" stroke-width="1.2"/>
<rect x="1263.0" y="820.0" width="214.0" height="42.0" rx="6" fill="#141d21" stroke="#a78bfa" stroke-width="1.4"/>
<text x="1370.0" y="836.0" font-size="11.5" fill="#e6edf0" text-anchor="middle" font-weight="600">+ IPO, ORPO, WPO, SPPO,</text>
<text x="1370.0" y="850.0" font-size="9.5" fill="#7d919b" text-anchor="middle">TDPO, GPO… (20 papers)</text>
<circle cx="430.0" cy="902.0" r="5" fill="#34d399" stroke="#06211d" stroke-width="1.2"/>
<rect x="323.0" y="916.0" width="214.0" height="42.0" rx="6" fill="#141d21" stroke="#34d399" stroke-width="1.4"/>
<text x="430.0" y="932.0" font-size="11.5" fill="#e6edf0" text-anchor="middle" font-weight="600">Yu et al. 2025</text>
<text x="430.0" y="946.0" font-size="9.5" fill="#7d919b" text-anchor="middle">DAPO</text>
<circle cx="900.0" cy="902.0" r="5" fill="#34d399" stroke="#06211d" stroke-width="1.2"/>
<rect x="793.0" y="916.0" width="214.0" height="42.0" rx="6" fill="#141d21" stroke="#34d399" stroke-width="1.4"/>
<text x="900.0" y="932.0" font-size="11.5" fill="#e6edf0" text-anchor="middle" font-weight="600">Zheng et al. 2025</text>
<text x="900.0" y="946.0" font-size="9.5" fill="#7d919b" text-anchor="middle">GSPO</text>
<circle cx="1370.0" cy="902.0" r="5" fill="#34d399" stroke="#06211d" stroke-width="1.2"/>
<rect x="1263.0" y="916.0" width="214.0" height="42.0" rx="6" fill="#141d21" stroke="#34d399" stroke-width="1.4"/>
<text x="1370.0" y="932.0" font-size="11.5" fill="#e6edf0" text-anchor="middle" font-weight="600">Liu 2025 / Zhao 2025</text>
<text x="1370.0" y="946.0" font-size="9.5" fill="#7d919b" text-anchor="middle">Dr. GRPO, Absolute Zero</text>
<circle cx="430.0" cy="998.0" r="5" fill="#fbbf24" stroke="#06211d" stroke-width="1.2"/>
<rect x="323.0" y="1012.0" width="214.0" height="42.0" rx="6" fill="#141d21" stroke="#fbbf24" stroke-width="1.4"/>
<text x="430.0" y="1028.0" font-size="11.5" fill="#e6edf0" text-anchor="middle" font-weight="600">Zhou et al. 2024</text>
<text x="430.0" y="1042.0" font-size="9.5" fill="#7d919b" text-anchor="middle">ArCHer</text>
<circle cx="900.0" cy="998.0" r="5" fill="#fbbf24" stroke="#06211d" stroke-width="1.2"/>
<rect x="793.0" y="1012.0" width="214.0" height="42.0" rx="6" fill="#141d21" stroke="#fbbf24" stroke-width="1.4"/>
<text x="900.0" y="1028.0" font-size="11.5" fill="#e6edf0" text-anchor="middle" font-weight="600">Wang 2025 / Feng 2025</text>
<text x="900.0" y="1042.0" font-size="9.5" fill="#7d919b" text-anchor="middle">RAGEN, GiGPO</text>
<circle cx="1370.0" cy="998.0" r="5" fill="#fbbf24" stroke="#06211d" stroke-width="1.2"/>
<rect x="1263.0" y="1012.0" width="214.0" height="42.0" rx="6" fill="#141d21" stroke="#fbbf24" stroke-width="1.4"/>
<text x="1370.0" y="1028.0" font-size="11.5" fill="#e6edf0" text-anchor="middle" font-weight="600">Wei / Jin / Xi 2025</text>
<text x="1370.0" y="1042.0" font-size="9.5" fill="#7d919b" text-anchor="middle">SWE-RL, Search-R1, AgentGym-RL</text>
<circle cx="430.0" cy="1094.0" r="5" fill="#60a5fa" stroke="#06211d" stroke-width="1.2"/>
<rect x="323.0" y="1108.0" width="214.0" height="42.0" rx="6" fill="#141d21" stroke="#60a5fa" stroke-width="1.4"/>
<text x="430.0" y="1124.0" font-size="11.5" fill="#e6edf0" text-anchor="middle" font-weight="600">Yao et al. 2023</text>
<text x="430.0" y="1138.0" font-size="9.5" fill="#7d919b" text-anchor="middle">DeepSpeed-Chat</text>
<circle cx="900.0" cy="1094.0" r="5" fill="#60a5fa" stroke="#06211d" stroke-width="1.2"/>
<rect x="793.0" y="1108.0" width="214.0" height="42.0" rx="6" fill="#141d21" stroke="#60a5fa" stroke-width="1.4"/>
<text x="900.0" y="1124.0" font-size="11.5" fill="#e6edf0" text-anchor="middle" font-weight="600">Hu 2024 / Sheng 2024</text>
<text x="900.0" y="1138.0" font-size="9.5" fill="#7d919b" text-anchor="middle">OpenRLHF, verl</text>
<circle cx="1370.0" cy="1094.0" r="5" fill="#60a5fa" stroke="#06211d" stroke-width="1.2"/>
<rect x="1263.0" y="1108.0" width="214.0" height="42.0" rx="6" fill="#141d21" stroke="#60a5fa" stroke-width="1.4"/>
<text x="1370.0" y="1124.0" font-size="11.5" fill="#e6edf0" text-anchor="middle" font-weight="600">Fu / Zhong / Wu 2025</text>
<text x="1370.0" y="1138.0" font-size="9.5" fill="#7d919b" text-anchor="middle">AReaL, StreamRL, LlamaRL</text>
</svg>